%
M48
M72
T01C0.02362
T02C0.02400
T03C0.03346
T04C0.03543
T05C0.04000
T06C0.05512
T07C0.08661
%
T01
X48244Y41346
X108244Y71346
X168244Y21346
X238244Y56346
X238244Y71346
X228244Y121346
X48244Y121346
T02
X60744Y118846
X55744Y113846
X50744Y133846
X158244Y126346
X60744Y76346
X55744Y66346
X84144Y64446
X151844Y28846
X240744Y40146
T03
X55764Y30008
X70724Y30008
T04
X113244Y46346
X143244Y46346
X129150Y18846
X117339Y18846
T05
X123244Y81346
X133244Y81346
X143244Y81346
X153244Y81346
X163244Y81346
X173244Y81346
X183244Y81346
X193244Y81346
X203244Y81346
X213244Y81346
X223244Y81346
X233244Y81346
X233244Y141346
X223244Y141346
X213244Y141346
X203244Y141346
X193244Y141346
X183244Y141346
X173244Y141346
X163244Y141346
X153244Y141346
X143244Y141346
X133244Y141346
X123244Y141346
T06
X263244Y131346
X263244Y91346
T07
X203244Y36346
X98244Y36346
X98244Y126346
M30
