G75*
%MOIN*%
%OFA0B0*%
%FSLAX25Y25*%
%IPPOS*%
%LPD*%
%AMOC8*
5,1,8,0,0,1.08239X$1,22.5*
%
%ADD10R,0.04737X0.10446*%
%ADD11R,0.10446X0.04737*%
%ADD12C,0.08200*%
%ADD13R,0.18910X0.04737*%
%ADD14R,0.14186X0.07099*%
%ADD15R,0.04737X0.03950*%
%ADD16R,0.03556X0.06706*%
%ADD17C,0.04343*%
%ADD18C,0.01421*%
%ADD19R,0.12611X0.04737*%
%ADD20C,0.06312*%
%ADD21R,0.02375X0.06312*%
%ADD22C,0.04146*%
%ADD23R,0.07874X0.06693*%
%ADD24R,0.10630X0.06693*%
%ADD25R,0.07887X0.06706*%
%ADD26R,0.10643X0.06706*%
%ADD27R,0.07099X0.07887*%
%ADD28R,0.04762X0.04762*%
%ADD29C,0.13461*%
%ADD30C,0.04800*%
D10*
X0045094Y0056740D03*
X0050606Y0056740D03*
X0056118Y0056740D03*
X0061630Y0056740D03*
X0067142Y0056740D03*
X0072654Y0056740D03*
X0078165Y0056740D03*
X0083677Y0056740D03*
X0083677Y0105953D03*
X0078165Y0105953D03*
X0072654Y0105953D03*
X0067142Y0105953D03*
X0061630Y0105953D03*
X0056118Y0105953D03*
X0050606Y0105953D03*
X0045094Y0105953D03*
D11*
X0092535Y0100638D03*
X0092535Y0095126D03*
X0092535Y0089614D03*
X0092535Y0084102D03*
X0092535Y0078591D03*
X0092535Y0073079D03*
X0092535Y0067567D03*
X0092535Y0062055D03*
D12*
X0113244Y0046346D03*
X0143244Y0046346D03*
X0143244Y0081346D03*
X0133244Y0081346D03*
X0123244Y0081346D03*
X0153244Y0081346D03*
X0163244Y0081346D03*
X0173244Y0081346D03*
X0183244Y0081346D03*
X0193244Y0081346D03*
X0203244Y0081346D03*
X0213244Y0081346D03*
X0223244Y0081346D03*
X0233244Y0081346D03*
X0233244Y0141346D03*
X0223244Y0141346D03*
X0213244Y0141346D03*
X0203244Y0141346D03*
X0193244Y0141346D03*
X0183244Y0141346D03*
X0173244Y0141346D03*
X0163244Y0141346D03*
X0153244Y0141346D03*
X0143244Y0141346D03*
X0133244Y0141346D03*
X0123244Y0141346D03*
D13*
X0245311Y0035283D03*
X0245311Y0027409D03*
D14*
X0224839Y0017961D03*
X0224839Y0044732D03*
D15*
X0139583Y0023177D03*
X0139583Y0014516D03*
X0106906Y0014516D03*
X0106906Y0023177D03*
D16*
X0114386Y0027705D03*
X0126197Y0027705D03*
X0132102Y0027705D03*
D17*
X0129150Y0018846D03*
X0117339Y0018846D03*
D18*
X0094902Y0013736D02*
X0091586Y0013736D01*
X0091586Y0017052D01*
X0094902Y0017052D01*
X0094902Y0013736D01*
X0094902Y0015156D02*
X0091586Y0015156D01*
X0091586Y0016576D02*
X0094902Y0016576D01*
X0094902Y0020641D02*
X0091586Y0020641D01*
X0091586Y0023957D01*
X0094902Y0023957D01*
X0094902Y0020641D01*
X0094902Y0022061D02*
X0091586Y0022061D01*
X0091586Y0023481D02*
X0094902Y0023481D01*
D19*
X0243559Y0086346D03*
X0243559Y0096346D03*
X0243559Y0106346D03*
X0243559Y0116346D03*
X0243559Y0126346D03*
X0243559Y0136346D03*
D20*
X0263244Y0131346D03*
X0263244Y0091346D03*
D21*
X0068362Y0031976D03*
X0065803Y0031976D03*
X0063244Y0031976D03*
X0060685Y0031976D03*
X0058126Y0031976D03*
D22*
X0055764Y0030008D03*
X0070724Y0030008D03*
D23*
X0048740Y0021346D03*
X0077748Y0021346D03*
D24*
X0063244Y0021346D03*
D25*
X0048756Y0021346D03*
X0077732Y0021346D03*
D26*
X0063244Y0021346D03*
D27*
X0152732Y0061346D03*
X0163756Y0061346D03*
X0177732Y0061346D03*
X0188756Y0061346D03*
X0178756Y0046346D03*
X0167732Y0046346D03*
X0083756Y0141346D03*
X0072732Y0141346D03*
X0058756Y0141346D03*
X0047732Y0141346D03*
D28*
X0048244Y0121346D03*
X0108244Y0071346D03*
X0048244Y0041346D03*
X0168244Y0021346D03*
X0238244Y0056346D03*
X0238244Y0071346D03*
X0228244Y0121346D03*
D29*
X0098244Y0126346D03*
X0098244Y0036346D03*
X0203244Y0036346D03*
D30*
X0240744Y0040146D03*
X0151844Y0028846D03*
X0084144Y0064446D03*
X0060744Y0076346D03*
X0055744Y0066346D03*
X0055744Y0113846D03*
X0060744Y0118846D03*
X0050744Y0133846D03*
X0158244Y0126346D03*
M02*
