G75*
%MOIN*%
%OFA0B0*%
%FSLAX25Y25*%
%IPPOS*%
%LPD*%
%AMOC8*
5,1,8,0,0,1.08239X$1,22.5*
%
%ADD10C,0.07400*%
%ADD11C,0.01000*%
%ADD12C,0.01600*%
%ADD13R,0.03962X0.03962*%
%ADD14C,0.12661*%
%ADD15C,0.04000*%
D10*
X0113244Y0046346D03*
X0143244Y0046346D03*
X0143244Y0081346D03*
X0133244Y0081346D03*
X0123244Y0081346D03*
X0153244Y0081346D03*
X0163244Y0081346D03*
X0173244Y0081346D03*
X0183244Y0081346D03*
X0193244Y0081346D03*
X0203244Y0081346D03*
X0213244Y0081346D03*
X0223244Y0081346D03*
X0233244Y0081346D03*
X0233244Y0141346D03*
X0223244Y0141346D03*
X0213244Y0141346D03*
X0203244Y0141346D03*
X0193244Y0141346D03*
X0183244Y0141346D03*
X0173244Y0141346D03*
X0163244Y0141346D03*
X0153244Y0141346D03*
X0143244Y0141346D03*
X0133244Y0141346D03*
X0123244Y0141346D03*
D11*
X0128244Y0136346D02*
X0133244Y0141346D01*
X0128244Y0136346D02*
X0053244Y0136346D01*
X0050744Y0133846D01*
X0060744Y0118846D02*
X0060744Y0076346D01*
X0055744Y0066346D02*
X0055744Y0113846D01*
X0113844Y0064446D02*
X0128244Y0078846D01*
X0128244Y0084246D01*
X0179544Y0135546D01*
X0187644Y0135546D01*
X0193044Y0140946D01*
X0193244Y0141346D01*
X0158244Y0126346D02*
X0143244Y0141346D01*
X0203244Y0081346D02*
X0202944Y0080646D01*
X0202944Y0077946D01*
X0196644Y0071646D01*
X0156144Y0071646D01*
X0121044Y0036546D01*
X0113844Y0036546D01*
X0085944Y0064446D01*
X0084144Y0064446D01*
X0113844Y0064446D02*
X0113844Y0046446D01*
X0113244Y0046346D01*
X0151844Y0028846D02*
X0209444Y0018846D01*
X0240744Y0040146D01*
D12*
X0043044Y0016146D02*
X0043044Y0146507D01*
X0119778Y0146507D01*
X0118073Y0144802D01*
X0117144Y0142560D01*
X0117144Y0140133D01*
X0117511Y0139246D01*
X0052667Y0139246D01*
X0051601Y0138805D01*
X0051043Y0138246D01*
X0049869Y0138246D01*
X0048252Y0137577D01*
X0047014Y0136339D01*
X0046344Y0134722D01*
X0046344Y0132971D01*
X0047014Y0131354D01*
X0048252Y0130116D01*
X0049869Y0129446D01*
X0051619Y0129446D01*
X0053236Y0130116D01*
X0054474Y0131354D01*
X0055144Y0132971D01*
X0055144Y0133446D01*
X0128821Y0133446D01*
X0129887Y0133888D01*
X0131475Y0135477D01*
X0132031Y0135246D01*
X0134457Y0135246D01*
X0136699Y0136175D01*
X0138244Y0137720D01*
X0139789Y0136175D01*
X0142031Y0135246D01*
X0144457Y0135246D01*
X0145013Y0135477D01*
X0153844Y0126645D01*
X0153844Y0125471D01*
X0154514Y0123854D01*
X0155752Y0122616D01*
X0157369Y0121946D01*
X0159119Y0121946D01*
X0160736Y0122616D01*
X0161974Y0123854D01*
X0162644Y0125471D01*
X0162644Y0127222D01*
X0161974Y0128839D01*
X0160736Y0130077D01*
X0159119Y0130746D01*
X0157945Y0130746D01*
X0153445Y0135246D01*
X0154457Y0135246D01*
X0156699Y0136175D01*
X0158244Y0137720D01*
X0159789Y0136175D01*
X0162031Y0135246D01*
X0164457Y0135246D01*
X0166699Y0136175D01*
X0168244Y0137720D01*
X0169789Y0136175D01*
X0172031Y0135246D01*
X0174457Y0135246D01*
X0175628Y0135731D01*
X0126498Y0086601D01*
X0124457Y0087446D01*
X0122031Y0087446D01*
X0119789Y0086518D01*
X0118073Y0084802D01*
X0117144Y0082560D01*
X0117144Y0080133D01*
X0118073Y0077891D01*
X0119789Y0076175D01*
X0120979Y0075682D01*
X0111386Y0066089D01*
X0110944Y0065023D01*
X0110944Y0051996D01*
X0109789Y0051518D01*
X0108073Y0049802D01*
X0107144Y0047560D01*
X0107144Y0047348D01*
X0088403Y0066089D01*
X0088101Y0066390D01*
X0087874Y0066939D01*
X0086636Y0068177D01*
X0085019Y0068846D01*
X0083269Y0068846D01*
X0081652Y0068177D01*
X0080414Y0066939D01*
X0079744Y0065322D01*
X0079744Y0063571D01*
X0080414Y0061954D01*
X0081652Y0060716D01*
X0083269Y0060046D01*
X0085019Y0060046D01*
X0085884Y0060405D01*
X0111386Y0034904D01*
X0112201Y0034088D01*
X0113267Y0033646D01*
X0121621Y0033646D01*
X0122687Y0034088D01*
X0157345Y0068746D01*
X0197221Y0068746D01*
X0198287Y0069188D01*
X0204345Y0075246D01*
X0204457Y0075246D01*
X0206699Y0076175D01*
X0208244Y0077720D01*
X0209789Y0076175D01*
X0212031Y0075246D01*
X0214457Y0075246D01*
X0216699Y0076175D01*
X0218415Y0077891D01*
X0218612Y0078365D01*
X0219049Y0077763D01*
X0219661Y0077151D01*
X0220361Y0076642D01*
X0221133Y0076249D01*
X0221956Y0075982D01*
X0222811Y0075846D01*
X0223044Y0075846D01*
X0223044Y0081146D01*
X0223444Y0081146D01*
X0223444Y0075846D01*
X0223677Y0075846D01*
X0224532Y0075982D01*
X0225355Y0076249D01*
X0226127Y0076642D01*
X0226827Y0077151D01*
X0227439Y0077763D01*
X0227876Y0078365D01*
X0228073Y0077891D01*
X0229789Y0076175D01*
X0232031Y0075246D01*
X0234457Y0075246D01*
X0236699Y0076175D01*
X0238415Y0077891D01*
X0239344Y0080133D01*
X0239344Y0082560D01*
X0238415Y0084802D01*
X0236699Y0086518D01*
X0234457Y0087446D01*
X0232031Y0087446D01*
X0229789Y0086518D01*
X0228073Y0084802D01*
X0227876Y0084328D01*
X0227439Y0084929D01*
X0226827Y0085542D01*
X0226127Y0086050D01*
X0225355Y0086443D01*
X0224532Y0086711D01*
X0223677Y0086846D01*
X0223444Y0086846D01*
X0223444Y0081547D01*
X0223044Y0081547D01*
X0223044Y0086846D01*
X0222811Y0086846D01*
X0221956Y0086711D01*
X0221133Y0086443D01*
X0220361Y0086050D01*
X0219661Y0085542D01*
X0219049Y0084929D01*
X0218612Y0084328D01*
X0218415Y0084802D01*
X0216699Y0086518D01*
X0214457Y0087446D01*
X0212031Y0087446D01*
X0209789Y0086518D01*
X0208244Y0084973D01*
X0206699Y0086518D01*
X0204457Y0087446D01*
X0202031Y0087446D01*
X0199789Y0086518D01*
X0198244Y0084973D01*
X0196699Y0086518D01*
X0194457Y0087446D01*
X0192031Y0087446D01*
X0189789Y0086518D01*
X0188244Y0084973D01*
X0186699Y0086518D01*
X0184457Y0087446D01*
X0182031Y0087446D01*
X0179789Y0086518D01*
X0178244Y0084973D01*
X0176699Y0086518D01*
X0174457Y0087446D01*
X0172031Y0087446D01*
X0169789Y0086518D01*
X0168244Y0084973D01*
X0166699Y0086518D01*
X0164457Y0087446D01*
X0162031Y0087446D01*
X0159789Y0086518D01*
X0158244Y0084973D01*
X0156699Y0086518D01*
X0154457Y0087446D01*
X0152031Y0087446D01*
X0149789Y0086518D01*
X0148244Y0084973D01*
X0146699Y0086518D01*
X0144457Y0087446D01*
X0142031Y0087446D01*
X0139789Y0086518D01*
X0138244Y0084973D01*
X0136699Y0086518D01*
X0135227Y0087128D01*
X0180745Y0132646D01*
X0188221Y0132646D01*
X0189287Y0133088D01*
X0191617Y0135418D01*
X0192031Y0135246D01*
X0194457Y0135246D01*
X0196699Y0136175D01*
X0198415Y0137891D01*
X0198612Y0138365D01*
X0199049Y0137763D01*
X0199661Y0137151D01*
X0200361Y0136642D01*
X0201133Y0136249D01*
X0201956Y0135982D01*
X0202811Y0135846D01*
X0203044Y0135846D01*
X0203044Y0141146D01*
X0203444Y0141146D01*
X0203444Y0135846D01*
X0203677Y0135846D01*
X0204532Y0135982D01*
X0205355Y0136249D01*
X0206127Y0136642D01*
X0206827Y0137151D01*
X0207439Y0137763D01*
X0207876Y0138365D01*
X0208073Y0137891D01*
X0209789Y0136175D01*
X0212031Y0135246D01*
X0214457Y0135246D01*
X0216699Y0136175D01*
X0218244Y0137720D01*
X0219789Y0136175D01*
X0222031Y0135246D01*
X0224457Y0135246D01*
X0226699Y0136175D01*
X0228244Y0137720D01*
X0229789Y0136175D01*
X0232031Y0135246D01*
X0234457Y0135246D01*
X0236699Y0136175D01*
X0238415Y0137891D01*
X0239344Y0140133D01*
X0239344Y0142560D01*
X0238415Y0144802D01*
X0236710Y0146507D01*
X0252145Y0146507D01*
X0252145Y0016146D01*
X0210647Y0016146D01*
X0211095Y0016462D01*
X0239598Y0035859D01*
X0239869Y0035746D01*
X0241619Y0035746D01*
X0243236Y0036416D01*
X0244474Y0037654D01*
X0245144Y0039271D01*
X0245144Y0041022D01*
X0244474Y0042639D01*
X0243236Y0043877D01*
X0241619Y0044546D01*
X0239869Y0044546D01*
X0238252Y0043877D01*
X0237014Y0042639D01*
X0236344Y0041022D01*
X0236344Y0040660D01*
X0208783Y0021905D01*
X0155662Y0031127D01*
X0155574Y0031339D01*
X0154336Y0032577D01*
X0152719Y0033246D01*
X0150969Y0033246D01*
X0149352Y0032577D01*
X0148114Y0031339D01*
X0147444Y0029722D01*
X0147444Y0027971D01*
X0148114Y0026354D01*
X0149352Y0025116D01*
X0150969Y0024446D01*
X0152719Y0024446D01*
X0154336Y0025116D01*
X0154638Y0025418D01*
X0208042Y0016146D01*
X0135144Y0016146D01*
X0135721Y0017539D01*
X0135721Y0020154D01*
X0134721Y0022569D01*
X0132872Y0024418D01*
X0130457Y0025418D01*
X0127842Y0025418D01*
X0125427Y0024418D01*
X0123578Y0022569D01*
X0123244Y0021762D01*
X0122910Y0022569D01*
X0121061Y0024418D01*
X0118646Y0025418D01*
X0116031Y0025418D01*
X0113616Y0024418D01*
X0111767Y0022569D01*
X0110767Y0020154D01*
X0110767Y0017539D01*
X0111344Y0016146D01*
X0043044Y0016146D01*
X0043044Y0017741D02*
X0110767Y0017741D01*
X0110767Y0019339D02*
X0043044Y0019339D01*
X0043044Y0020938D02*
X0111092Y0020938D01*
X0111754Y0022536D02*
X0043044Y0022536D01*
X0043044Y0024135D02*
X0053028Y0024135D01*
X0052097Y0024520D02*
X0054476Y0023535D01*
X0057051Y0023535D01*
X0059431Y0024520D01*
X0061252Y0026341D01*
X0062237Y0028720D01*
X0062237Y0031295D01*
X0061252Y0033675D01*
X0059431Y0035496D01*
X0057051Y0036481D01*
X0054476Y0036481D01*
X0052097Y0035496D01*
X0050276Y0033675D01*
X0049291Y0031295D01*
X0049291Y0028720D01*
X0050276Y0026341D01*
X0052097Y0024520D01*
X0050884Y0025733D02*
X0043044Y0025733D01*
X0043044Y0027332D02*
X0049866Y0027332D01*
X0049291Y0028930D02*
X0043044Y0028930D01*
X0043044Y0030529D02*
X0049291Y0030529D01*
X0049635Y0032127D02*
X0043044Y0032127D01*
X0043044Y0033726D02*
X0050327Y0033726D01*
X0051926Y0035324D02*
X0043044Y0035324D01*
X0043044Y0036923D02*
X0109367Y0036923D01*
X0107768Y0038521D02*
X0043044Y0038521D01*
X0043044Y0040120D02*
X0106170Y0040120D01*
X0104571Y0041718D02*
X0043044Y0041718D01*
X0043044Y0043317D02*
X0102973Y0043317D01*
X0101374Y0044915D02*
X0043044Y0044915D01*
X0043044Y0046514D02*
X0099776Y0046514D01*
X0098177Y0048112D02*
X0043044Y0048112D01*
X0043044Y0049711D02*
X0096579Y0049711D01*
X0094980Y0051309D02*
X0043044Y0051309D01*
X0043044Y0052908D02*
X0093382Y0052908D01*
X0091783Y0054506D02*
X0043044Y0054506D01*
X0043044Y0056105D02*
X0090185Y0056105D01*
X0088586Y0057703D02*
X0043044Y0057703D01*
X0043044Y0059302D02*
X0086988Y0059302D01*
X0081468Y0060900D02*
X0043044Y0060900D01*
X0043044Y0062499D02*
X0053535Y0062499D01*
X0053252Y0062616D02*
X0054869Y0061946D01*
X0056619Y0061946D01*
X0058236Y0062616D01*
X0059474Y0063854D01*
X0060144Y0065471D01*
X0060144Y0067222D01*
X0059474Y0068839D01*
X0058644Y0069669D01*
X0058644Y0072454D01*
X0059869Y0071946D01*
X0061619Y0071946D01*
X0063236Y0072616D01*
X0064474Y0073854D01*
X0065144Y0075471D01*
X0065144Y0077222D01*
X0064474Y0078839D01*
X0063644Y0079669D01*
X0063644Y0115524D01*
X0064474Y0116354D01*
X0065144Y0117971D01*
X0065144Y0119722D01*
X0064474Y0121339D01*
X0063236Y0122577D01*
X0061619Y0123246D01*
X0059869Y0123246D01*
X0058252Y0122577D01*
X0057014Y0121339D01*
X0056344Y0119722D01*
X0056344Y0118246D01*
X0054869Y0118246D01*
X0053252Y0117577D01*
X0052014Y0116339D01*
X0051344Y0114722D01*
X0051344Y0112971D01*
X0052014Y0111354D01*
X0052844Y0110524D01*
X0052844Y0069669D01*
X0052014Y0068839D01*
X0051344Y0067222D01*
X0051344Y0065471D01*
X0052014Y0063854D01*
X0053252Y0062616D01*
X0051913Y0064097D02*
X0043044Y0064097D01*
X0043044Y0065696D02*
X0051344Y0065696D01*
X0051374Y0067294D02*
X0043044Y0067294D01*
X0043044Y0068893D02*
X0052068Y0068893D01*
X0052844Y0070491D02*
X0043044Y0070491D01*
X0043044Y0072090D02*
X0052844Y0072090D01*
X0052844Y0073688D02*
X0043044Y0073688D01*
X0043044Y0075287D02*
X0052844Y0075287D01*
X0052844Y0076885D02*
X0043044Y0076885D01*
X0043044Y0078484D02*
X0052844Y0078484D01*
X0052844Y0080082D02*
X0043044Y0080082D01*
X0043044Y0081681D02*
X0052844Y0081681D01*
X0052844Y0083279D02*
X0043044Y0083279D01*
X0043044Y0084878D02*
X0052844Y0084878D01*
X0052844Y0086476D02*
X0043044Y0086476D01*
X0043044Y0088075D02*
X0052844Y0088075D01*
X0052844Y0089674D02*
X0043044Y0089674D01*
X0043044Y0091272D02*
X0052844Y0091272D01*
X0052844Y0092871D02*
X0043044Y0092871D01*
X0043044Y0094469D02*
X0052844Y0094469D01*
X0052844Y0096068D02*
X0043044Y0096068D01*
X0043044Y0097666D02*
X0052844Y0097666D01*
X0052844Y0099265D02*
X0043044Y0099265D01*
X0043044Y0100863D02*
X0052844Y0100863D01*
X0052844Y0102462D02*
X0043044Y0102462D01*
X0043044Y0104060D02*
X0052844Y0104060D01*
X0052844Y0105659D02*
X0043044Y0105659D01*
X0043044Y0107257D02*
X0052844Y0107257D01*
X0052844Y0108856D02*
X0043044Y0108856D01*
X0043044Y0110454D02*
X0052844Y0110454D01*
X0051725Y0112053D02*
X0043044Y0112053D01*
X0043044Y0113651D02*
X0051344Y0113651D01*
X0051563Y0115250D02*
X0043044Y0115250D01*
X0043044Y0116848D02*
X0052523Y0116848D01*
X0056344Y0118447D02*
X0043044Y0118447D01*
X0043044Y0120045D02*
X0056478Y0120045D01*
X0057319Y0121644D02*
X0043044Y0121644D01*
X0043044Y0123242D02*
X0059859Y0123242D01*
X0061629Y0123242D02*
X0155126Y0123242D01*
X0154105Y0124841D02*
X0043044Y0124841D01*
X0043044Y0126439D02*
X0153844Y0126439D01*
X0152452Y0128038D02*
X0043044Y0128038D01*
X0043044Y0129636D02*
X0049411Y0129636D01*
X0052078Y0129636D02*
X0150853Y0129636D01*
X0149255Y0131235D02*
X0054355Y0131235D01*
X0055087Y0132833D02*
X0147656Y0132833D01*
X0146057Y0134432D02*
X0130431Y0134432D01*
X0136350Y0136030D02*
X0140138Y0136030D01*
X0138335Y0137629D02*
X0138153Y0137629D01*
X0154260Y0134432D02*
X0174328Y0134432D01*
X0172730Y0132833D02*
X0155858Y0132833D01*
X0157457Y0131235D02*
X0171131Y0131235D01*
X0169533Y0129636D02*
X0161177Y0129636D01*
X0162306Y0128038D02*
X0167934Y0128038D01*
X0166336Y0126439D02*
X0162644Y0126439D01*
X0162383Y0124841D02*
X0164737Y0124841D01*
X0163139Y0123242D02*
X0161362Y0123242D01*
X0161540Y0121644D02*
X0064169Y0121644D01*
X0065010Y0120045D02*
X0159942Y0120045D01*
X0158343Y0118447D02*
X0065144Y0118447D01*
X0064679Y0116848D02*
X0156745Y0116848D01*
X0155146Y0115250D02*
X0063644Y0115250D01*
X0063644Y0113651D02*
X0153548Y0113651D01*
X0151949Y0112053D02*
X0063644Y0112053D01*
X0063644Y0110454D02*
X0150351Y0110454D01*
X0148752Y0108856D02*
X0063644Y0108856D01*
X0063644Y0107257D02*
X0147154Y0107257D01*
X0145555Y0105659D02*
X0063644Y0105659D01*
X0063644Y0104060D02*
X0143957Y0104060D01*
X0142358Y0102462D02*
X0063644Y0102462D01*
X0063644Y0100863D02*
X0140760Y0100863D01*
X0139161Y0099265D02*
X0063644Y0099265D01*
X0063644Y0097666D02*
X0137563Y0097666D01*
X0135964Y0096068D02*
X0063644Y0096068D01*
X0063644Y0094469D02*
X0134365Y0094469D01*
X0132767Y0092871D02*
X0063644Y0092871D01*
X0063644Y0091272D02*
X0131168Y0091272D01*
X0129570Y0089674D02*
X0063644Y0089674D01*
X0063644Y0088075D02*
X0127971Y0088075D01*
X0136174Y0088075D02*
X0252145Y0088075D01*
X0252145Y0086476D02*
X0236741Y0086476D01*
X0238339Y0084878D02*
X0252145Y0084878D01*
X0252145Y0083279D02*
X0239046Y0083279D01*
X0239344Y0081681D02*
X0252145Y0081681D01*
X0252145Y0080082D02*
X0239323Y0080082D01*
X0238661Y0078484D02*
X0252145Y0078484D01*
X0252145Y0076885D02*
X0237410Y0076885D01*
X0234555Y0075287D02*
X0252145Y0075287D01*
X0252145Y0073688D02*
X0202787Y0073688D01*
X0201189Y0072090D02*
X0252145Y0072090D01*
X0252145Y0070491D02*
X0199590Y0070491D01*
X0197574Y0068893D02*
X0252145Y0068893D01*
X0252145Y0067294D02*
X0155893Y0067294D01*
X0154295Y0065696D02*
X0252145Y0065696D01*
X0252145Y0064097D02*
X0152696Y0064097D01*
X0151098Y0062499D02*
X0252145Y0062499D01*
X0252145Y0060900D02*
X0149499Y0060900D01*
X0147901Y0059302D02*
X0252145Y0059302D01*
X0252145Y0057703D02*
X0146302Y0057703D01*
X0144704Y0056105D02*
X0252145Y0056105D01*
X0252145Y0054506D02*
X0143105Y0054506D01*
X0141507Y0052908D02*
X0252145Y0052908D01*
X0252145Y0051309D02*
X0145619Y0051309D01*
X0145355Y0051443D02*
X0144532Y0051711D01*
X0143677Y0051846D01*
X0143330Y0051846D01*
X0143330Y0046432D01*
X0148744Y0046432D01*
X0148744Y0046779D01*
X0148609Y0047634D01*
X0148341Y0048458D01*
X0147948Y0049229D01*
X0147439Y0049929D01*
X0146827Y0050542D01*
X0146127Y0051050D01*
X0145355Y0051443D01*
X0143330Y0051309D02*
X0143158Y0051309D01*
X0143158Y0051846D02*
X0142811Y0051846D01*
X0141956Y0051711D01*
X0141133Y0051443D01*
X0140361Y0051050D01*
X0139661Y0050542D01*
X0139049Y0049929D01*
X0138540Y0049229D01*
X0138147Y0048458D01*
X0137880Y0047634D01*
X0137744Y0046779D01*
X0137744Y0046432D01*
X0143158Y0046432D01*
X0143158Y0046261D01*
X0137744Y0046261D01*
X0137744Y0045914D01*
X0137880Y0045059D01*
X0138147Y0044235D01*
X0138540Y0043464D01*
X0139049Y0042763D01*
X0139661Y0042151D01*
X0140361Y0041642D01*
X0141133Y0041249D01*
X0141956Y0040982D01*
X0142811Y0040846D01*
X0143158Y0040846D01*
X0143158Y0046261D01*
X0143330Y0046261D01*
X0143330Y0046432D01*
X0143158Y0046432D01*
X0143158Y0051846D01*
X0143158Y0049711D02*
X0143330Y0049711D01*
X0143330Y0048112D02*
X0143158Y0048112D01*
X0143158Y0046514D02*
X0143330Y0046514D01*
X0143330Y0046261D02*
X0148744Y0046261D01*
X0148744Y0045914D01*
X0148609Y0045059D01*
X0148341Y0044235D01*
X0147948Y0043464D01*
X0147439Y0042763D01*
X0146827Y0042151D01*
X0146127Y0041642D01*
X0145355Y0041249D01*
X0144532Y0040982D01*
X0143677Y0040846D01*
X0143330Y0040846D01*
X0143330Y0046261D01*
X0143330Y0044915D02*
X0143158Y0044915D01*
X0143158Y0043317D02*
X0143330Y0043317D01*
X0143330Y0041718D02*
X0143158Y0041718D01*
X0140257Y0041718D02*
X0130317Y0041718D01*
X0128719Y0040120D02*
X0235550Y0040120D01*
X0236633Y0041718D02*
X0146231Y0041718D01*
X0147841Y0043317D02*
X0237692Y0043317D01*
X0243796Y0043317D02*
X0252145Y0043317D01*
X0252145Y0044915D02*
X0148562Y0044915D01*
X0148744Y0046514D02*
X0252145Y0046514D01*
X0252145Y0048112D02*
X0148453Y0048112D01*
X0147598Y0049711D02*
X0252145Y0049711D01*
X0252145Y0041718D02*
X0244856Y0041718D01*
X0245144Y0040120D02*
X0252145Y0040120D01*
X0252145Y0038521D02*
X0244833Y0038521D01*
X0243743Y0036923D02*
X0252145Y0036923D01*
X0252145Y0035324D02*
X0238812Y0035324D01*
X0236463Y0033726D02*
X0252145Y0033726D01*
X0252145Y0032127D02*
X0234114Y0032127D01*
X0231765Y0030529D02*
X0252145Y0030529D01*
X0252145Y0028930D02*
X0229416Y0028930D01*
X0227067Y0027332D02*
X0252145Y0027332D01*
X0252145Y0025733D02*
X0224718Y0025733D01*
X0222369Y0024135D02*
X0252145Y0024135D01*
X0252145Y0022536D02*
X0220020Y0022536D01*
X0217672Y0020938D02*
X0252145Y0020938D01*
X0252145Y0019339D02*
X0215323Y0019339D01*
X0212974Y0017741D02*
X0252145Y0017741D01*
X0223805Y0032127D02*
X0154786Y0032127D01*
X0159109Y0030529D02*
X0221456Y0030529D01*
X0219107Y0028930D02*
X0168316Y0028930D01*
X0162031Y0024135D02*
X0133155Y0024135D01*
X0134734Y0022536D02*
X0171238Y0022536D01*
X0177524Y0027332D02*
X0216758Y0027332D01*
X0214409Y0025733D02*
X0186731Y0025733D01*
X0180446Y0020938D02*
X0135397Y0020938D01*
X0135721Y0019339D02*
X0189653Y0019339D01*
X0195938Y0024135D02*
X0212060Y0024135D01*
X0209711Y0022536D02*
X0205146Y0022536D01*
X0198861Y0017741D02*
X0135721Y0017741D01*
X0125144Y0024135D02*
X0121344Y0024135D01*
X0122923Y0022536D02*
X0123565Y0022536D01*
X0113333Y0024135D02*
X0073460Y0024135D01*
X0074391Y0024520D02*
X0076212Y0026341D01*
X0077198Y0028720D01*
X0077198Y0031295D01*
X0076212Y0033675D01*
X0074391Y0035496D01*
X0072012Y0036481D01*
X0069437Y0036481D01*
X0067058Y0035496D01*
X0065237Y0033675D01*
X0064251Y0031295D01*
X0064251Y0028720D01*
X0065237Y0026341D01*
X0067058Y0024520D01*
X0069437Y0023535D01*
X0072012Y0023535D01*
X0074391Y0024520D01*
X0075604Y0025733D02*
X0148735Y0025733D01*
X0147709Y0027332D02*
X0076622Y0027332D01*
X0077198Y0028930D02*
X0147444Y0028930D01*
X0147778Y0030529D02*
X0077198Y0030529D01*
X0076853Y0032127D02*
X0148902Y0032127D01*
X0127120Y0038521D02*
X0233201Y0038521D01*
X0230852Y0036923D02*
X0125521Y0036923D01*
X0123923Y0035324D02*
X0228503Y0035324D01*
X0226154Y0033726D02*
X0121812Y0033726D01*
X0113076Y0033726D02*
X0076161Y0033726D01*
X0074563Y0035324D02*
X0110965Y0035324D01*
X0111386Y0034904D02*
X0111386Y0034904D01*
X0131916Y0043317D02*
X0138647Y0043317D01*
X0137926Y0044915D02*
X0133514Y0044915D01*
X0135113Y0046514D02*
X0137744Y0046514D01*
X0138035Y0048112D02*
X0136711Y0048112D01*
X0138310Y0049711D02*
X0138890Y0049711D01*
X0139908Y0051309D02*
X0140869Y0051309D01*
X0112591Y0067294D02*
X0087519Y0067294D01*
X0088403Y0066089D02*
X0088403Y0066089D01*
X0088796Y0065696D02*
X0111223Y0065696D01*
X0110944Y0064097D02*
X0090394Y0064097D01*
X0091993Y0062499D02*
X0110944Y0062499D01*
X0110944Y0060900D02*
X0093591Y0060900D01*
X0095190Y0059302D02*
X0110944Y0059302D01*
X0110944Y0057703D02*
X0096788Y0057703D01*
X0098387Y0056105D02*
X0110944Y0056105D01*
X0110944Y0054506D02*
X0099985Y0054506D01*
X0101584Y0052908D02*
X0110944Y0052908D01*
X0109580Y0051309D02*
X0103183Y0051309D01*
X0104781Y0049711D02*
X0108035Y0049711D01*
X0107373Y0048112D02*
X0106380Y0048112D01*
X0080188Y0062499D02*
X0057953Y0062499D01*
X0059575Y0064097D02*
X0079744Y0064097D01*
X0079899Y0065696D02*
X0060144Y0065696D01*
X0060114Y0067294D02*
X0080769Y0067294D01*
X0065068Y0075287D02*
X0120583Y0075287D01*
X0119078Y0076885D02*
X0065144Y0076885D01*
X0064621Y0078484D02*
X0117827Y0078484D01*
X0117165Y0080082D02*
X0063644Y0080082D01*
X0063644Y0081681D02*
X0117144Y0081681D01*
X0117442Y0083279D02*
X0063644Y0083279D01*
X0063644Y0084878D02*
X0118149Y0084878D01*
X0119747Y0086476D02*
X0063644Y0086476D01*
X0064309Y0073688D02*
X0118985Y0073688D01*
X0117386Y0072090D02*
X0061966Y0072090D01*
X0059523Y0072090D02*
X0058644Y0072090D01*
X0058644Y0070491D02*
X0115788Y0070491D01*
X0114189Y0068893D02*
X0059420Y0068893D01*
X0059602Y0035324D02*
X0066886Y0035324D01*
X0065288Y0033726D02*
X0061201Y0033726D01*
X0061893Y0032127D02*
X0064596Y0032127D01*
X0064251Y0030529D02*
X0062237Y0030529D01*
X0062237Y0028930D02*
X0064251Y0028930D01*
X0064826Y0027332D02*
X0061662Y0027332D01*
X0060643Y0025733D02*
X0065845Y0025733D01*
X0067989Y0024135D02*
X0058500Y0024135D01*
X0136741Y0086476D02*
X0139747Y0086476D01*
X0137772Y0089674D02*
X0252145Y0089674D01*
X0252145Y0091272D02*
X0139371Y0091272D01*
X0140969Y0092871D02*
X0252145Y0092871D01*
X0252145Y0094469D02*
X0142568Y0094469D01*
X0144166Y0096068D02*
X0252145Y0096068D01*
X0252145Y0097666D02*
X0145765Y0097666D01*
X0147363Y0099265D02*
X0252145Y0099265D01*
X0252145Y0100863D02*
X0148962Y0100863D01*
X0150560Y0102462D02*
X0252145Y0102462D01*
X0252145Y0104060D02*
X0152159Y0104060D01*
X0153757Y0105659D02*
X0252145Y0105659D01*
X0252145Y0107257D02*
X0155356Y0107257D01*
X0156955Y0108856D02*
X0252145Y0108856D01*
X0252145Y0110454D02*
X0158553Y0110454D01*
X0160152Y0112053D02*
X0252145Y0112053D01*
X0252145Y0113651D02*
X0161750Y0113651D01*
X0163349Y0115250D02*
X0252145Y0115250D01*
X0252145Y0116848D02*
X0164947Y0116848D01*
X0166546Y0118447D02*
X0252145Y0118447D01*
X0252145Y0120045D02*
X0168144Y0120045D01*
X0169743Y0121644D02*
X0252145Y0121644D01*
X0252145Y0123242D02*
X0171341Y0123242D01*
X0172940Y0124841D02*
X0252145Y0124841D01*
X0252145Y0126439D02*
X0174538Y0126439D01*
X0176137Y0128038D02*
X0252145Y0128038D01*
X0252145Y0129636D02*
X0177735Y0129636D01*
X0179334Y0131235D02*
X0252145Y0131235D01*
X0252145Y0132833D02*
X0188672Y0132833D01*
X0190631Y0134432D02*
X0252145Y0134432D01*
X0252145Y0136030D02*
X0236350Y0136030D01*
X0238153Y0137629D02*
X0252145Y0137629D01*
X0252145Y0139227D02*
X0238969Y0139227D01*
X0239344Y0140826D02*
X0252145Y0140826D01*
X0252145Y0142424D02*
X0239344Y0142424D01*
X0238738Y0144023D02*
X0252145Y0144023D01*
X0252145Y0145621D02*
X0237596Y0145621D01*
X0228335Y0137629D02*
X0228153Y0137629D01*
X0226350Y0136030D02*
X0230138Y0136030D01*
X0220138Y0136030D02*
X0216350Y0136030D01*
X0218153Y0137629D02*
X0218335Y0137629D01*
X0210138Y0136030D02*
X0204681Y0136030D01*
X0203444Y0136030D02*
X0203044Y0136030D01*
X0201807Y0136030D02*
X0196350Y0136030D01*
X0198153Y0137629D02*
X0199184Y0137629D01*
X0203044Y0137629D02*
X0203444Y0137629D01*
X0203444Y0139227D02*
X0203044Y0139227D01*
X0203044Y0140826D02*
X0203444Y0140826D01*
X0207305Y0137629D02*
X0208335Y0137629D01*
X0170138Y0136030D02*
X0166350Y0136030D01*
X0168153Y0137629D02*
X0168335Y0137629D01*
X0160138Y0136030D02*
X0156350Y0136030D01*
X0158153Y0137629D02*
X0158335Y0137629D01*
X0118892Y0145621D02*
X0043044Y0145621D01*
X0043044Y0144023D02*
X0117750Y0144023D01*
X0117144Y0142424D02*
X0043044Y0142424D01*
X0043044Y0140826D02*
X0117144Y0140826D01*
X0052621Y0139227D02*
X0043044Y0139227D01*
X0043044Y0137629D02*
X0048378Y0137629D01*
X0046886Y0136030D02*
X0043044Y0136030D01*
X0043044Y0134432D02*
X0046344Y0134432D01*
X0046401Y0132833D02*
X0043044Y0132833D01*
X0043044Y0131235D02*
X0047133Y0131235D01*
X0146741Y0086476D02*
X0149747Y0086476D01*
X0156741Y0086476D02*
X0159747Y0086476D01*
X0166741Y0086476D02*
X0169747Y0086476D01*
X0176741Y0086476D02*
X0179747Y0086476D01*
X0186741Y0086476D02*
X0189747Y0086476D01*
X0196741Y0086476D02*
X0199747Y0086476D01*
X0206741Y0086476D02*
X0209747Y0086476D01*
X0216741Y0086476D02*
X0221234Y0086476D01*
X0223044Y0086476D02*
X0223444Y0086476D01*
X0223444Y0084878D02*
X0223044Y0084878D01*
X0223044Y0083279D02*
X0223444Y0083279D01*
X0223444Y0081681D02*
X0223044Y0081681D01*
X0223044Y0080082D02*
X0223444Y0080082D01*
X0223444Y0078484D02*
X0223044Y0078484D01*
X0223044Y0076885D02*
X0223444Y0076885D01*
X0226461Y0076885D02*
X0229078Y0076885D01*
X0231933Y0075287D02*
X0214555Y0075287D01*
X0211933Y0075287D02*
X0204555Y0075287D01*
X0207410Y0076885D02*
X0209078Y0076885D01*
X0217410Y0076885D02*
X0220027Y0076885D01*
X0219012Y0084878D02*
X0218339Y0084878D01*
X0225254Y0086476D02*
X0229747Y0086476D01*
X0228149Y0084878D02*
X0227477Y0084878D01*
D13*
X0238244Y0071346D03*
X0238244Y0056346D03*
X0168244Y0021346D03*
X0108244Y0071346D03*
X0048244Y0041346D03*
X0048244Y0121346D03*
X0228244Y0121346D03*
D14*
X0098244Y0126346D03*
X0098244Y0036346D03*
X0203244Y0036346D03*
D15*
X0240744Y0040146D03*
X0151844Y0028846D03*
X0084144Y0064446D03*
X0060744Y0076346D03*
X0055744Y0066346D03*
X0055744Y0113846D03*
X0060744Y0118846D03*
X0050744Y0133846D03*
X0158244Y0126346D03*
M02*
