G75*
%MOIN*%
%OFA0B0*%
%FSLAX25Y25*%
%IPPOS*%
%LPD*%
%AMOC8*
5,1,8,0,0,1.08239X$1,22.5*
%
%ADD10C,0.00000*%
%ADD11C,0.00300*%
%ADD12C,0.00400*%
%ADD13R,0.03937X0.09646*%
%ADD14R,0.09646X0.03937*%
%ADD15C,0.07400*%
%ADD16R,0.18110X0.03937*%
%ADD17R,0.13386X0.06299*%
%ADD18R,0.03937X0.03150*%
%ADD19R,0.02756X0.05906*%
%ADD20C,0.01181*%
%ADD21R,0.11811X0.03937*%
%ADD22R,0.01575X0.05512*%
%ADD23R,0.07087X0.05906*%
%ADD24R,0.09843X0.05906*%
%ADD25R,0.06299X0.07087*%
%ADD26C,0.01000*%
%ADD27C,0.01600*%
%ADD28R,0.03962X0.03962*%
%ADD29C,0.12661*%
%ADD30C,0.04000*%
D10*
X0038244Y0011346D02*
X0038244Y0151307D01*
X0256945Y0151307D01*
X0256945Y0011346D01*
X0038244Y0011346D01*
X0054091Y0030008D02*
X0054093Y0030089D01*
X0054099Y0030171D01*
X0054109Y0030252D01*
X0054123Y0030332D01*
X0054140Y0030411D01*
X0054162Y0030490D01*
X0054187Y0030567D01*
X0054216Y0030644D01*
X0054249Y0030718D01*
X0054286Y0030791D01*
X0054325Y0030862D01*
X0054369Y0030931D01*
X0054415Y0030998D01*
X0054465Y0031062D01*
X0054518Y0031124D01*
X0054574Y0031184D01*
X0054632Y0031240D01*
X0054694Y0031294D01*
X0054758Y0031345D01*
X0054824Y0031392D01*
X0054892Y0031436D01*
X0054963Y0031477D01*
X0055035Y0031514D01*
X0055110Y0031548D01*
X0055185Y0031578D01*
X0055263Y0031604D01*
X0055341Y0031627D01*
X0055420Y0031645D01*
X0055500Y0031660D01*
X0055581Y0031671D01*
X0055662Y0031678D01*
X0055744Y0031681D01*
X0055825Y0031680D01*
X0055906Y0031675D01*
X0055987Y0031666D01*
X0056068Y0031653D01*
X0056148Y0031636D01*
X0056226Y0031616D01*
X0056304Y0031591D01*
X0056381Y0031563D01*
X0056456Y0031531D01*
X0056529Y0031496D01*
X0056600Y0031457D01*
X0056670Y0031414D01*
X0056737Y0031369D01*
X0056803Y0031320D01*
X0056865Y0031268D01*
X0056925Y0031212D01*
X0056982Y0031154D01*
X0057037Y0031094D01*
X0057088Y0031030D01*
X0057136Y0030965D01*
X0057181Y0030897D01*
X0057223Y0030827D01*
X0057261Y0030755D01*
X0057296Y0030681D01*
X0057327Y0030606D01*
X0057354Y0030529D01*
X0057377Y0030451D01*
X0057397Y0030372D01*
X0057413Y0030292D01*
X0057425Y0030211D01*
X0057433Y0030130D01*
X0057437Y0030049D01*
X0057437Y0029967D01*
X0057433Y0029886D01*
X0057425Y0029805D01*
X0057413Y0029724D01*
X0057397Y0029644D01*
X0057377Y0029565D01*
X0057354Y0029487D01*
X0057327Y0029410D01*
X0057296Y0029335D01*
X0057261Y0029261D01*
X0057223Y0029189D01*
X0057181Y0029119D01*
X0057136Y0029051D01*
X0057088Y0028986D01*
X0057037Y0028922D01*
X0056982Y0028862D01*
X0056925Y0028804D01*
X0056865Y0028748D01*
X0056803Y0028696D01*
X0056737Y0028647D01*
X0056670Y0028602D01*
X0056601Y0028559D01*
X0056529Y0028520D01*
X0056456Y0028485D01*
X0056381Y0028453D01*
X0056304Y0028425D01*
X0056226Y0028400D01*
X0056148Y0028380D01*
X0056068Y0028363D01*
X0055987Y0028350D01*
X0055906Y0028341D01*
X0055825Y0028336D01*
X0055744Y0028335D01*
X0055662Y0028338D01*
X0055581Y0028345D01*
X0055500Y0028356D01*
X0055420Y0028371D01*
X0055341Y0028389D01*
X0055263Y0028412D01*
X0055185Y0028438D01*
X0055110Y0028468D01*
X0055035Y0028502D01*
X0054963Y0028539D01*
X0054892Y0028580D01*
X0054824Y0028624D01*
X0054758Y0028671D01*
X0054694Y0028722D01*
X0054632Y0028776D01*
X0054574Y0028832D01*
X0054518Y0028892D01*
X0054465Y0028954D01*
X0054415Y0029018D01*
X0054369Y0029085D01*
X0054325Y0029154D01*
X0054286Y0029225D01*
X0054249Y0029298D01*
X0054216Y0029372D01*
X0054187Y0029449D01*
X0054162Y0029526D01*
X0054140Y0029605D01*
X0054123Y0029684D01*
X0054109Y0029764D01*
X0054099Y0029845D01*
X0054093Y0029927D01*
X0054091Y0030008D01*
X0069051Y0030008D02*
X0069053Y0030089D01*
X0069059Y0030171D01*
X0069069Y0030252D01*
X0069083Y0030332D01*
X0069100Y0030411D01*
X0069122Y0030490D01*
X0069147Y0030567D01*
X0069176Y0030644D01*
X0069209Y0030718D01*
X0069246Y0030791D01*
X0069285Y0030862D01*
X0069329Y0030931D01*
X0069375Y0030998D01*
X0069425Y0031062D01*
X0069478Y0031124D01*
X0069534Y0031184D01*
X0069592Y0031240D01*
X0069654Y0031294D01*
X0069718Y0031345D01*
X0069784Y0031392D01*
X0069852Y0031436D01*
X0069923Y0031477D01*
X0069995Y0031514D01*
X0070070Y0031548D01*
X0070145Y0031578D01*
X0070223Y0031604D01*
X0070301Y0031627D01*
X0070380Y0031645D01*
X0070460Y0031660D01*
X0070541Y0031671D01*
X0070622Y0031678D01*
X0070704Y0031681D01*
X0070785Y0031680D01*
X0070866Y0031675D01*
X0070947Y0031666D01*
X0071028Y0031653D01*
X0071108Y0031636D01*
X0071186Y0031616D01*
X0071264Y0031591D01*
X0071341Y0031563D01*
X0071416Y0031531D01*
X0071489Y0031496D01*
X0071560Y0031457D01*
X0071630Y0031414D01*
X0071697Y0031369D01*
X0071763Y0031320D01*
X0071825Y0031268D01*
X0071885Y0031212D01*
X0071942Y0031154D01*
X0071997Y0031094D01*
X0072048Y0031030D01*
X0072096Y0030965D01*
X0072141Y0030897D01*
X0072183Y0030827D01*
X0072221Y0030755D01*
X0072256Y0030681D01*
X0072287Y0030606D01*
X0072314Y0030529D01*
X0072337Y0030451D01*
X0072357Y0030372D01*
X0072373Y0030292D01*
X0072385Y0030211D01*
X0072393Y0030130D01*
X0072397Y0030049D01*
X0072397Y0029967D01*
X0072393Y0029886D01*
X0072385Y0029805D01*
X0072373Y0029724D01*
X0072357Y0029644D01*
X0072337Y0029565D01*
X0072314Y0029487D01*
X0072287Y0029410D01*
X0072256Y0029335D01*
X0072221Y0029261D01*
X0072183Y0029189D01*
X0072141Y0029119D01*
X0072096Y0029051D01*
X0072048Y0028986D01*
X0071997Y0028922D01*
X0071942Y0028862D01*
X0071885Y0028804D01*
X0071825Y0028748D01*
X0071763Y0028696D01*
X0071697Y0028647D01*
X0071630Y0028602D01*
X0071561Y0028559D01*
X0071489Y0028520D01*
X0071416Y0028485D01*
X0071341Y0028453D01*
X0071264Y0028425D01*
X0071186Y0028400D01*
X0071108Y0028380D01*
X0071028Y0028363D01*
X0070947Y0028350D01*
X0070866Y0028341D01*
X0070785Y0028336D01*
X0070704Y0028335D01*
X0070622Y0028338D01*
X0070541Y0028345D01*
X0070460Y0028356D01*
X0070380Y0028371D01*
X0070301Y0028389D01*
X0070223Y0028412D01*
X0070145Y0028438D01*
X0070070Y0028468D01*
X0069995Y0028502D01*
X0069923Y0028539D01*
X0069852Y0028580D01*
X0069784Y0028624D01*
X0069718Y0028671D01*
X0069654Y0028722D01*
X0069592Y0028776D01*
X0069534Y0028832D01*
X0069478Y0028892D01*
X0069425Y0028954D01*
X0069375Y0029018D01*
X0069329Y0029085D01*
X0069285Y0029154D01*
X0069246Y0029225D01*
X0069209Y0029298D01*
X0069176Y0029372D01*
X0069147Y0029449D01*
X0069122Y0029526D01*
X0069100Y0029605D01*
X0069083Y0029684D01*
X0069069Y0029764D01*
X0069059Y0029845D01*
X0069053Y0029927D01*
X0069051Y0030008D01*
X0115567Y0018846D02*
X0115569Y0018930D01*
X0115575Y0019013D01*
X0115585Y0019096D01*
X0115599Y0019179D01*
X0115616Y0019261D01*
X0115638Y0019342D01*
X0115663Y0019421D01*
X0115692Y0019500D01*
X0115725Y0019577D01*
X0115761Y0019652D01*
X0115801Y0019726D01*
X0115844Y0019798D01*
X0115891Y0019867D01*
X0115941Y0019934D01*
X0115994Y0019999D01*
X0116050Y0020061D01*
X0116108Y0020121D01*
X0116170Y0020178D01*
X0116234Y0020231D01*
X0116301Y0020282D01*
X0116370Y0020329D01*
X0116441Y0020374D01*
X0116514Y0020414D01*
X0116589Y0020451D01*
X0116666Y0020485D01*
X0116744Y0020515D01*
X0116823Y0020541D01*
X0116904Y0020564D01*
X0116986Y0020582D01*
X0117068Y0020597D01*
X0117151Y0020608D01*
X0117234Y0020615D01*
X0117318Y0020618D01*
X0117402Y0020617D01*
X0117485Y0020612D01*
X0117569Y0020603D01*
X0117651Y0020590D01*
X0117733Y0020574D01*
X0117814Y0020553D01*
X0117895Y0020529D01*
X0117973Y0020501D01*
X0118051Y0020469D01*
X0118127Y0020433D01*
X0118201Y0020394D01*
X0118273Y0020352D01*
X0118343Y0020306D01*
X0118411Y0020257D01*
X0118476Y0020205D01*
X0118539Y0020150D01*
X0118599Y0020092D01*
X0118657Y0020031D01*
X0118711Y0019967D01*
X0118763Y0019901D01*
X0118811Y0019833D01*
X0118856Y0019762D01*
X0118897Y0019689D01*
X0118936Y0019615D01*
X0118970Y0019539D01*
X0119001Y0019461D01*
X0119028Y0019382D01*
X0119052Y0019301D01*
X0119071Y0019220D01*
X0119087Y0019138D01*
X0119099Y0019055D01*
X0119107Y0018971D01*
X0119111Y0018888D01*
X0119111Y0018804D01*
X0119107Y0018721D01*
X0119099Y0018637D01*
X0119087Y0018554D01*
X0119071Y0018472D01*
X0119052Y0018391D01*
X0119028Y0018310D01*
X0119001Y0018231D01*
X0118970Y0018153D01*
X0118936Y0018077D01*
X0118897Y0018003D01*
X0118856Y0017930D01*
X0118811Y0017859D01*
X0118763Y0017791D01*
X0118711Y0017725D01*
X0118657Y0017661D01*
X0118599Y0017600D01*
X0118539Y0017542D01*
X0118476Y0017487D01*
X0118411Y0017435D01*
X0118343Y0017386D01*
X0118273Y0017340D01*
X0118201Y0017298D01*
X0118127Y0017259D01*
X0118051Y0017223D01*
X0117973Y0017191D01*
X0117895Y0017163D01*
X0117814Y0017139D01*
X0117733Y0017118D01*
X0117651Y0017102D01*
X0117569Y0017089D01*
X0117485Y0017080D01*
X0117402Y0017075D01*
X0117318Y0017074D01*
X0117234Y0017077D01*
X0117151Y0017084D01*
X0117068Y0017095D01*
X0116986Y0017110D01*
X0116904Y0017128D01*
X0116823Y0017151D01*
X0116744Y0017177D01*
X0116666Y0017207D01*
X0116589Y0017241D01*
X0116514Y0017278D01*
X0116441Y0017318D01*
X0116370Y0017363D01*
X0116301Y0017410D01*
X0116234Y0017461D01*
X0116170Y0017514D01*
X0116108Y0017571D01*
X0116050Y0017631D01*
X0115994Y0017693D01*
X0115941Y0017758D01*
X0115891Y0017825D01*
X0115844Y0017894D01*
X0115801Y0017966D01*
X0115761Y0018040D01*
X0115725Y0018115D01*
X0115692Y0018192D01*
X0115663Y0018271D01*
X0115638Y0018350D01*
X0115616Y0018431D01*
X0115599Y0018513D01*
X0115585Y0018596D01*
X0115575Y0018679D01*
X0115569Y0018762D01*
X0115567Y0018846D01*
X0127378Y0018846D02*
X0127380Y0018930D01*
X0127386Y0019013D01*
X0127396Y0019096D01*
X0127410Y0019179D01*
X0127427Y0019261D01*
X0127449Y0019342D01*
X0127474Y0019421D01*
X0127503Y0019500D01*
X0127536Y0019577D01*
X0127572Y0019652D01*
X0127612Y0019726D01*
X0127655Y0019798D01*
X0127702Y0019867D01*
X0127752Y0019934D01*
X0127805Y0019999D01*
X0127861Y0020061D01*
X0127919Y0020121D01*
X0127981Y0020178D01*
X0128045Y0020231D01*
X0128112Y0020282D01*
X0128181Y0020329D01*
X0128252Y0020374D01*
X0128325Y0020414D01*
X0128400Y0020451D01*
X0128477Y0020485D01*
X0128555Y0020515D01*
X0128634Y0020541D01*
X0128715Y0020564D01*
X0128797Y0020582D01*
X0128879Y0020597D01*
X0128962Y0020608D01*
X0129045Y0020615D01*
X0129129Y0020618D01*
X0129213Y0020617D01*
X0129296Y0020612D01*
X0129380Y0020603D01*
X0129462Y0020590D01*
X0129544Y0020574D01*
X0129625Y0020553D01*
X0129706Y0020529D01*
X0129784Y0020501D01*
X0129862Y0020469D01*
X0129938Y0020433D01*
X0130012Y0020394D01*
X0130084Y0020352D01*
X0130154Y0020306D01*
X0130222Y0020257D01*
X0130287Y0020205D01*
X0130350Y0020150D01*
X0130410Y0020092D01*
X0130468Y0020031D01*
X0130522Y0019967D01*
X0130574Y0019901D01*
X0130622Y0019833D01*
X0130667Y0019762D01*
X0130708Y0019689D01*
X0130747Y0019615D01*
X0130781Y0019539D01*
X0130812Y0019461D01*
X0130839Y0019382D01*
X0130863Y0019301D01*
X0130882Y0019220D01*
X0130898Y0019138D01*
X0130910Y0019055D01*
X0130918Y0018971D01*
X0130922Y0018888D01*
X0130922Y0018804D01*
X0130918Y0018721D01*
X0130910Y0018637D01*
X0130898Y0018554D01*
X0130882Y0018472D01*
X0130863Y0018391D01*
X0130839Y0018310D01*
X0130812Y0018231D01*
X0130781Y0018153D01*
X0130747Y0018077D01*
X0130708Y0018003D01*
X0130667Y0017930D01*
X0130622Y0017859D01*
X0130574Y0017791D01*
X0130522Y0017725D01*
X0130468Y0017661D01*
X0130410Y0017600D01*
X0130350Y0017542D01*
X0130287Y0017487D01*
X0130222Y0017435D01*
X0130154Y0017386D01*
X0130084Y0017340D01*
X0130012Y0017298D01*
X0129938Y0017259D01*
X0129862Y0017223D01*
X0129784Y0017191D01*
X0129706Y0017163D01*
X0129625Y0017139D01*
X0129544Y0017118D01*
X0129462Y0017102D01*
X0129380Y0017089D01*
X0129296Y0017080D01*
X0129213Y0017075D01*
X0129129Y0017074D01*
X0129045Y0017077D01*
X0128962Y0017084D01*
X0128879Y0017095D01*
X0128797Y0017110D01*
X0128715Y0017128D01*
X0128634Y0017151D01*
X0128555Y0017177D01*
X0128477Y0017207D01*
X0128400Y0017241D01*
X0128325Y0017278D01*
X0128252Y0017318D01*
X0128181Y0017363D01*
X0128112Y0017410D01*
X0128045Y0017461D01*
X0127981Y0017514D01*
X0127919Y0017571D01*
X0127861Y0017631D01*
X0127805Y0017693D01*
X0127752Y0017758D01*
X0127702Y0017825D01*
X0127655Y0017894D01*
X0127612Y0017966D01*
X0127572Y0018040D01*
X0127536Y0018115D01*
X0127503Y0018192D01*
X0127474Y0018271D01*
X0127449Y0018350D01*
X0127427Y0018431D01*
X0127410Y0018513D01*
X0127396Y0018596D01*
X0127386Y0018679D01*
X0127380Y0018762D01*
X0127378Y0018846D01*
X0260488Y0091346D02*
X0260490Y0091451D01*
X0260496Y0091556D01*
X0260506Y0091660D01*
X0260520Y0091764D01*
X0260538Y0091868D01*
X0260560Y0091970D01*
X0260585Y0092072D01*
X0260615Y0092173D01*
X0260648Y0092272D01*
X0260685Y0092370D01*
X0260726Y0092467D01*
X0260771Y0092562D01*
X0260819Y0092655D01*
X0260870Y0092747D01*
X0260926Y0092836D01*
X0260984Y0092923D01*
X0261046Y0093008D01*
X0261110Y0093091D01*
X0261178Y0093171D01*
X0261249Y0093248D01*
X0261323Y0093322D01*
X0261400Y0093394D01*
X0261479Y0093463D01*
X0261561Y0093528D01*
X0261645Y0093591D01*
X0261732Y0093650D01*
X0261821Y0093706D01*
X0261912Y0093759D01*
X0262005Y0093808D01*
X0262099Y0093853D01*
X0262195Y0093895D01*
X0262293Y0093933D01*
X0262392Y0093967D01*
X0262493Y0093998D01*
X0262594Y0094024D01*
X0262697Y0094047D01*
X0262800Y0094066D01*
X0262904Y0094081D01*
X0263008Y0094092D01*
X0263113Y0094099D01*
X0263218Y0094102D01*
X0263323Y0094101D01*
X0263428Y0094096D01*
X0263532Y0094087D01*
X0263636Y0094074D01*
X0263740Y0094057D01*
X0263843Y0094036D01*
X0263945Y0094011D01*
X0264046Y0093983D01*
X0264145Y0093950D01*
X0264244Y0093914D01*
X0264341Y0093874D01*
X0264436Y0093831D01*
X0264530Y0093783D01*
X0264622Y0093733D01*
X0264712Y0093679D01*
X0264800Y0093621D01*
X0264885Y0093560D01*
X0264968Y0093496D01*
X0265049Y0093429D01*
X0265127Y0093359D01*
X0265202Y0093285D01*
X0265274Y0093210D01*
X0265344Y0093131D01*
X0265410Y0093050D01*
X0265474Y0092966D01*
X0265534Y0092880D01*
X0265590Y0092792D01*
X0265644Y0092701D01*
X0265694Y0092609D01*
X0265740Y0092515D01*
X0265783Y0092419D01*
X0265822Y0092321D01*
X0265857Y0092223D01*
X0265888Y0092122D01*
X0265916Y0092021D01*
X0265940Y0091919D01*
X0265960Y0091816D01*
X0265976Y0091712D01*
X0265988Y0091608D01*
X0265996Y0091503D01*
X0266000Y0091398D01*
X0266000Y0091294D01*
X0265996Y0091189D01*
X0265988Y0091084D01*
X0265976Y0090980D01*
X0265960Y0090876D01*
X0265940Y0090773D01*
X0265916Y0090671D01*
X0265888Y0090570D01*
X0265857Y0090469D01*
X0265822Y0090371D01*
X0265783Y0090273D01*
X0265740Y0090177D01*
X0265694Y0090083D01*
X0265644Y0089991D01*
X0265590Y0089900D01*
X0265534Y0089812D01*
X0265474Y0089726D01*
X0265410Y0089642D01*
X0265344Y0089561D01*
X0265274Y0089482D01*
X0265202Y0089407D01*
X0265127Y0089333D01*
X0265049Y0089263D01*
X0264968Y0089196D01*
X0264885Y0089132D01*
X0264800Y0089071D01*
X0264712Y0089013D01*
X0264622Y0088959D01*
X0264530Y0088909D01*
X0264436Y0088861D01*
X0264341Y0088818D01*
X0264244Y0088778D01*
X0264145Y0088742D01*
X0264046Y0088709D01*
X0263945Y0088681D01*
X0263843Y0088656D01*
X0263740Y0088635D01*
X0263636Y0088618D01*
X0263532Y0088605D01*
X0263428Y0088596D01*
X0263323Y0088591D01*
X0263218Y0088590D01*
X0263113Y0088593D01*
X0263008Y0088600D01*
X0262904Y0088611D01*
X0262800Y0088626D01*
X0262697Y0088645D01*
X0262594Y0088668D01*
X0262493Y0088694D01*
X0262392Y0088725D01*
X0262293Y0088759D01*
X0262195Y0088797D01*
X0262099Y0088839D01*
X0262005Y0088884D01*
X0261912Y0088933D01*
X0261821Y0088986D01*
X0261732Y0089042D01*
X0261645Y0089101D01*
X0261561Y0089164D01*
X0261479Y0089229D01*
X0261400Y0089298D01*
X0261323Y0089370D01*
X0261249Y0089444D01*
X0261178Y0089521D01*
X0261110Y0089601D01*
X0261046Y0089684D01*
X0260984Y0089769D01*
X0260926Y0089856D01*
X0260870Y0089945D01*
X0260819Y0090037D01*
X0260771Y0090130D01*
X0260726Y0090225D01*
X0260685Y0090322D01*
X0260648Y0090420D01*
X0260615Y0090519D01*
X0260585Y0090620D01*
X0260560Y0090722D01*
X0260538Y0090824D01*
X0260520Y0090928D01*
X0260506Y0091032D01*
X0260496Y0091136D01*
X0260490Y0091241D01*
X0260488Y0091346D01*
X0260488Y0131346D02*
X0260490Y0131451D01*
X0260496Y0131556D01*
X0260506Y0131660D01*
X0260520Y0131764D01*
X0260538Y0131868D01*
X0260560Y0131970D01*
X0260585Y0132072D01*
X0260615Y0132173D01*
X0260648Y0132272D01*
X0260685Y0132370D01*
X0260726Y0132467D01*
X0260771Y0132562D01*
X0260819Y0132655D01*
X0260870Y0132747D01*
X0260926Y0132836D01*
X0260984Y0132923D01*
X0261046Y0133008D01*
X0261110Y0133091D01*
X0261178Y0133171D01*
X0261249Y0133248D01*
X0261323Y0133322D01*
X0261400Y0133394D01*
X0261479Y0133463D01*
X0261561Y0133528D01*
X0261645Y0133591D01*
X0261732Y0133650D01*
X0261821Y0133706D01*
X0261912Y0133759D01*
X0262005Y0133808D01*
X0262099Y0133853D01*
X0262195Y0133895D01*
X0262293Y0133933D01*
X0262392Y0133967D01*
X0262493Y0133998D01*
X0262594Y0134024D01*
X0262697Y0134047D01*
X0262800Y0134066D01*
X0262904Y0134081D01*
X0263008Y0134092D01*
X0263113Y0134099D01*
X0263218Y0134102D01*
X0263323Y0134101D01*
X0263428Y0134096D01*
X0263532Y0134087D01*
X0263636Y0134074D01*
X0263740Y0134057D01*
X0263843Y0134036D01*
X0263945Y0134011D01*
X0264046Y0133983D01*
X0264145Y0133950D01*
X0264244Y0133914D01*
X0264341Y0133874D01*
X0264436Y0133831D01*
X0264530Y0133783D01*
X0264622Y0133733D01*
X0264712Y0133679D01*
X0264800Y0133621D01*
X0264885Y0133560D01*
X0264968Y0133496D01*
X0265049Y0133429D01*
X0265127Y0133359D01*
X0265202Y0133285D01*
X0265274Y0133210D01*
X0265344Y0133131D01*
X0265410Y0133050D01*
X0265474Y0132966D01*
X0265534Y0132880D01*
X0265590Y0132792D01*
X0265644Y0132701D01*
X0265694Y0132609D01*
X0265740Y0132515D01*
X0265783Y0132419D01*
X0265822Y0132321D01*
X0265857Y0132223D01*
X0265888Y0132122D01*
X0265916Y0132021D01*
X0265940Y0131919D01*
X0265960Y0131816D01*
X0265976Y0131712D01*
X0265988Y0131608D01*
X0265996Y0131503D01*
X0266000Y0131398D01*
X0266000Y0131294D01*
X0265996Y0131189D01*
X0265988Y0131084D01*
X0265976Y0130980D01*
X0265960Y0130876D01*
X0265940Y0130773D01*
X0265916Y0130671D01*
X0265888Y0130570D01*
X0265857Y0130469D01*
X0265822Y0130371D01*
X0265783Y0130273D01*
X0265740Y0130177D01*
X0265694Y0130083D01*
X0265644Y0129991D01*
X0265590Y0129900D01*
X0265534Y0129812D01*
X0265474Y0129726D01*
X0265410Y0129642D01*
X0265344Y0129561D01*
X0265274Y0129482D01*
X0265202Y0129407D01*
X0265127Y0129333D01*
X0265049Y0129263D01*
X0264968Y0129196D01*
X0264885Y0129132D01*
X0264800Y0129071D01*
X0264712Y0129013D01*
X0264622Y0128959D01*
X0264530Y0128909D01*
X0264436Y0128861D01*
X0264341Y0128818D01*
X0264244Y0128778D01*
X0264145Y0128742D01*
X0264046Y0128709D01*
X0263945Y0128681D01*
X0263843Y0128656D01*
X0263740Y0128635D01*
X0263636Y0128618D01*
X0263532Y0128605D01*
X0263428Y0128596D01*
X0263323Y0128591D01*
X0263218Y0128590D01*
X0263113Y0128593D01*
X0263008Y0128600D01*
X0262904Y0128611D01*
X0262800Y0128626D01*
X0262697Y0128645D01*
X0262594Y0128668D01*
X0262493Y0128694D01*
X0262392Y0128725D01*
X0262293Y0128759D01*
X0262195Y0128797D01*
X0262099Y0128839D01*
X0262005Y0128884D01*
X0261912Y0128933D01*
X0261821Y0128986D01*
X0261732Y0129042D01*
X0261645Y0129101D01*
X0261561Y0129164D01*
X0261479Y0129229D01*
X0261400Y0129298D01*
X0261323Y0129370D01*
X0261249Y0129444D01*
X0261178Y0129521D01*
X0261110Y0129601D01*
X0261046Y0129684D01*
X0260984Y0129769D01*
X0260926Y0129856D01*
X0260870Y0129945D01*
X0260819Y0130037D01*
X0260771Y0130130D01*
X0260726Y0130225D01*
X0260685Y0130322D01*
X0260648Y0130420D01*
X0260615Y0130519D01*
X0260585Y0130620D01*
X0260560Y0130722D01*
X0260538Y0130824D01*
X0260520Y0130928D01*
X0260506Y0131032D01*
X0260496Y0131136D01*
X0260490Y0131241D01*
X0260488Y0131346D01*
D11*
X0103094Y0090447D02*
X0103094Y0089213D01*
X0102477Y0088595D01*
X0100008Y0091064D01*
X0102477Y0091064D01*
X0103094Y0090447D01*
X0100008Y0091064D02*
X0099391Y0090447D01*
X0099391Y0089213D01*
X0100008Y0088595D01*
X0102477Y0088595D01*
X0102477Y0087381D02*
X0103094Y0086764D01*
X0103094Y0085529D01*
X0102477Y0084912D01*
X0100008Y0087381D01*
X0102477Y0087381D01*
X0100008Y0087381D02*
X0099391Y0086764D01*
X0099391Y0085529D01*
X0100008Y0084912D01*
X0102477Y0084912D01*
X0102477Y0083698D02*
X0103094Y0083081D01*
X0103094Y0081846D01*
X0102477Y0081229D01*
X0100008Y0083698D01*
X0102477Y0083698D01*
X0100008Y0083698D02*
X0099391Y0083081D01*
X0099391Y0081846D01*
X0100008Y0081229D01*
X0102477Y0081229D01*
X0103094Y0080015D02*
X0103094Y0077546D01*
X0103094Y0076332D02*
X0099391Y0076332D01*
X0100625Y0075097D01*
X0099391Y0073863D01*
X0103094Y0073863D01*
X0103094Y0072648D02*
X0099391Y0072648D01*
X0101860Y0071414D02*
X0103094Y0072648D01*
X0101860Y0071414D02*
X0103094Y0070180D01*
X0099391Y0070180D01*
X0100008Y0068965D02*
X0099391Y0068348D01*
X0099391Y0066496D01*
X0103094Y0066496D01*
X0103094Y0068348D01*
X0102477Y0068965D01*
X0100008Y0068965D01*
X0100625Y0077546D02*
X0099391Y0078780D01*
X0103094Y0078780D01*
D12*
X0175944Y0023383D02*
X0175944Y0022516D01*
X0176811Y0021649D01*
X0178546Y0021649D01*
X0179414Y0020781D01*
X0179414Y0019914D01*
X0178546Y0019046D01*
X0176811Y0019046D01*
X0175944Y0019914D01*
X0181100Y0020781D02*
X0183703Y0020781D01*
X0184570Y0021649D01*
X0184570Y0023383D01*
X0183703Y0024251D01*
X0181100Y0024251D01*
X0181100Y0019046D01*
X0186257Y0019914D02*
X0187124Y0019046D01*
X0188859Y0019046D01*
X0189727Y0019914D01*
X0189727Y0023383D01*
X0188859Y0024251D01*
X0187124Y0024251D01*
X0186257Y0023383D01*
X0186257Y0019914D01*
X0191413Y0024251D02*
X0194883Y0024251D01*
X0193148Y0024251D02*
X0193148Y0019046D01*
X0201726Y0024251D02*
X0205196Y0024251D01*
X0203461Y0024251D02*
X0203461Y0019046D01*
X0206882Y0019914D02*
X0207750Y0020781D01*
X0210352Y0020781D01*
X0210352Y0021649D02*
X0210352Y0019046D01*
X0207750Y0019046D01*
X0206882Y0019914D01*
X0207750Y0022516D02*
X0209485Y0022516D01*
X0210352Y0021649D01*
X0212039Y0021649D02*
X0212039Y0019914D01*
X0212906Y0019046D01*
X0215509Y0019046D01*
X0215509Y0018179D02*
X0215509Y0022516D01*
X0212906Y0022516D01*
X0212039Y0021649D01*
X0213774Y0017312D02*
X0214641Y0017312D01*
X0215509Y0018179D01*
X0179414Y0023383D02*
X0178546Y0024251D01*
X0176811Y0024251D01*
X0175944Y0023383D01*
D13*
X0083677Y0056740D03*
X0078165Y0056740D03*
X0072654Y0056740D03*
X0067142Y0056740D03*
X0061630Y0056740D03*
X0056118Y0056740D03*
X0050606Y0056740D03*
X0045094Y0056740D03*
X0045094Y0105953D03*
X0050606Y0105953D03*
X0056118Y0105953D03*
X0061630Y0105953D03*
X0067142Y0105953D03*
X0072654Y0105953D03*
X0078165Y0105953D03*
X0083677Y0105953D03*
D14*
X0092535Y0100638D03*
X0092535Y0095126D03*
X0092535Y0089614D03*
X0092535Y0084102D03*
X0092535Y0078591D03*
X0092535Y0073079D03*
X0092535Y0067567D03*
X0092535Y0062055D03*
D15*
X0113244Y0046346D03*
X0143244Y0046346D03*
X0143244Y0081346D03*
X0133244Y0081346D03*
X0123244Y0081346D03*
X0153244Y0081346D03*
X0163244Y0081346D03*
X0173244Y0081346D03*
X0183244Y0081346D03*
X0193244Y0081346D03*
X0203244Y0081346D03*
X0213244Y0081346D03*
X0223244Y0081346D03*
X0233244Y0081346D03*
X0233244Y0141346D03*
X0223244Y0141346D03*
X0213244Y0141346D03*
X0203244Y0141346D03*
X0193244Y0141346D03*
X0183244Y0141346D03*
X0173244Y0141346D03*
X0163244Y0141346D03*
X0153244Y0141346D03*
X0143244Y0141346D03*
X0133244Y0141346D03*
X0123244Y0141346D03*
D16*
X0245311Y0035283D03*
X0245311Y0027409D03*
D17*
X0224839Y0017961D03*
X0224839Y0044732D03*
D18*
X0139583Y0023177D03*
X0139583Y0014516D03*
X0106906Y0014516D03*
X0106906Y0023177D03*
D19*
X0114386Y0027705D03*
X0126197Y0027705D03*
X0132102Y0027705D03*
D20*
X0094622Y0020921D02*
X0091866Y0020921D01*
X0091866Y0023677D01*
X0094622Y0023677D01*
X0094622Y0020921D01*
X0094622Y0022101D02*
X0091866Y0022101D01*
X0091866Y0023281D02*
X0094622Y0023281D01*
X0094622Y0014016D02*
X0091866Y0014016D01*
X0091866Y0016772D01*
X0094622Y0016772D01*
X0094622Y0014016D01*
X0094622Y0015196D02*
X0091866Y0015196D01*
X0091866Y0016376D02*
X0094622Y0016376D01*
D21*
X0243559Y0086346D03*
X0243559Y0096346D03*
X0243559Y0106346D03*
X0243559Y0116346D03*
X0243559Y0126346D03*
X0243559Y0136346D03*
D22*
X0068362Y0031976D03*
X0065803Y0031976D03*
X0063244Y0031976D03*
X0060685Y0031976D03*
X0058126Y0031976D03*
D23*
X0048756Y0021346D03*
X0077732Y0021346D03*
D24*
X0063244Y0021346D03*
D25*
X0152732Y0061346D03*
X0163756Y0061346D03*
X0177732Y0061346D03*
X0188756Y0061346D03*
X0178756Y0046346D03*
X0167732Y0046346D03*
X0083756Y0141346D03*
X0072732Y0141346D03*
X0058756Y0141346D03*
X0047732Y0141346D03*
D26*
X0048244Y0141346D01*
X0050744Y0138846D01*
X0050744Y0133846D01*
X0055744Y0138846D02*
X0055744Y0113846D01*
X0056244Y0109446D02*
X0082344Y0135546D01*
X0187644Y0135546D01*
X0193044Y0140946D01*
X0193244Y0141346D01*
X0198244Y0143846D02*
X0198244Y0138846D01*
X0188244Y0128846D01*
X0188244Y0071346D01*
X0178244Y0061346D01*
X0177732Y0061346D01*
X0168244Y0066346D02*
X0168244Y0056346D01*
X0183244Y0056346D01*
X0188244Y0061346D01*
X0188756Y0061346D01*
X0168244Y0066346D02*
X0158244Y0066346D01*
X0158244Y0056346D01*
X0155744Y0053846D01*
X0088244Y0053846D01*
X0088244Y0051346D01*
X0085744Y0048846D01*
X0063244Y0048846D01*
X0063244Y0056346D01*
X0061630Y0056740D01*
X0067142Y0056740D02*
X0067944Y0056346D01*
X0072444Y0056346D01*
X0072654Y0056740D01*
X0073344Y0056346D01*
X0077844Y0056346D01*
X0078165Y0056740D01*
X0078744Y0057246D01*
X0078744Y0060846D01*
X0082344Y0064446D01*
X0084144Y0064446D01*
X0060744Y0076346D02*
X0045744Y0061346D01*
X0045744Y0058846D01*
X0045094Y0056740D01*
X0050606Y0056740D02*
X0050744Y0058846D01*
X0050744Y0061346D01*
X0055744Y0066346D01*
X0056118Y0056740D02*
X0055744Y0056346D01*
X0055744Y0046346D01*
X0088244Y0046346D01*
X0090744Y0048846D01*
X0090744Y0051346D01*
X0158244Y0051346D01*
X0160744Y0053846D01*
X0160744Y0058846D01*
X0163244Y0061346D01*
X0163756Y0061346D01*
X0155744Y0063846D02*
X0155744Y0076346D01*
X0158244Y0078846D01*
X0158244Y0126346D01*
X0153244Y0141346D02*
X0153244Y0146346D01*
X0195744Y0146346D01*
X0198244Y0143846D01*
X0203244Y0141346D02*
X0203844Y0140946D01*
X0203844Y0130146D01*
X0238044Y0095946D01*
X0243559Y0096346D01*
X0244344Y0095946D01*
X0251544Y0088746D01*
X0251544Y0084246D01*
X0234444Y0067146D01*
X0234444Y0027546D01*
X0132744Y0027546D01*
X0126444Y0028446D02*
X0126197Y0027705D01*
X0126444Y0028446D02*
X0151844Y0028846D01*
X0123744Y0037446D02*
X0114744Y0028446D01*
X0114386Y0027705D01*
X0113844Y0027546D01*
X0111144Y0024846D01*
X0111144Y0021246D01*
X0109344Y0019446D01*
X0105744Y0019446D01*
X0102144Y0015846D01*
X0094044Y0015846D01*
X0093244Y0015394D01*
X0093244Y0022299D02*
X0094044Y0023046D01*
X0101244Y0023046D01*
X0123744Y0045546D01*
X0142644Y0045546D01*
X0143244Y0046346D01*
X0143544Y0046446D01*
X0188544Y0046446D01*
X0222744Y0080646D01*
X0223244Y0081346D01*
X0223644Y0081546D01*
X0238044Y0095946D01*
X0243444Y0095946D01*
X0243559Y0096346D01*
X0233244Y0081346D02*
X0232644Y0080646D01*
X0229944Y0080646D01*
X0186744Y0037446D01*
X0123744Y0037446D01*
X0152732Y0061346D02*
X0153244Y0061346D01*
X0155744Y0063846D01*
X0153244Y0081346D02*
X0152544Y0081546D01*
X0118344Y0115746D01*
X0073344Y0115746D01*
X0067944Y0110346D01*
X0067944Y0106746D01*
X0067142Y0105953D01*
X0072654Y0105953D02*
X0073344Y0106746D01*
X0073344Y0110346D01*
X0076944Y0113946D01*
X0110244Y0113946D01*
X0142644Y0081546D01*
X0143244Y0081346D01*
X0133244Y0081346D02*
X0132744Y0081546D01*
X0102144Y0112146D01*
X0080544Y0112146D01*
X0078744Y0110346D01*
X0078744Y0106746D01*
X0078165Y0105953D01*
X0083677Y0105953D02*
X0084144Y0105846D01*
X0098544Y0105846D01*
X0122844Y0081546D01*
X0123244Y0081346D01*
X0056118Y0105953D02*
X0056244Y0106746D01*
X0056244Y0109446D01*
X0060744Y0118846D02*
X0083244Y0141346D01*
X0083756Y0141346D01*
X0078244Y0146346D02*
X0123244Y0146346D01*
X0123244Y0141346D01*
X0078244Y0146346D02*
X0073244Y0141346D01*
X0072732Y0141346D01*
X0058756Y0141346D02*
X0058244Y0141346D01*
X0055744Y0138846D01*
X0240744Y0040146D02*
X0245244Y0035646D01*
X0245311Y0035283D01*
X0245244Y0027546D02*
X0234444Y0027546D01*
X0245244Y0027546D02*
X0245311Y0027409D01*
D27*
X0245127Y0027332D02*
X0155979Y0027332D01*
X0156244Y0027971D02*
X0155574Y0026354D01*
X0154336Y0025116D01*
X0152719Y0024446D01*
X0150969Y0024446D01*
X0149352Y0025116D01*
X0148573Y0025895D01*
X0143707Y0025818D01*
X0143951Y0025229D01*
X0143951Y0021125D01*
X0143586Y0020243D01*
X0142911Y0019568D01*
X0142029Y0019202D01*
X0137137Y0019202D01*
X0136255Y0019568D01*
X0135721Y0020101D01*
X0135721Y0017592D01*
X0136255Y0018125D01*
X0137137Y0018491D01*
X0142029Y0018491D01*
X0142911Y0018125D01*
X0143586Y0017450D01*
X0143951Y0016568D01*
X0143951Y0016146D01*
X0215746Y0016146D01*
X0215746Y0021588D01*
X0216111Y0022470D01*
X0216786Y0023145D01*
X0217668Y0023510D01*
X0232009Y0023510D01*
X0232891Y0023145D01*
X0233566Y0022470D01*
X0233931Y0021588D01*
X0233931Y0016146D01*
X0252145Y0016146D01*
X0252145Y0023641D01*
X0245495Y0023641D01*
X0245495Y0027225D01*
X0245127Y0027225D01*
X0245127Y0023641D01*
X0236019Y0023641D01*
X0235561Y0023764D01*
X0235151Y0024001D01*
X0234816Y0024336D01*
X0234579Y0024746D01*
X0234456Y0025204D01*
X0234456Y0027225D01*
X0245127Y0027225D01*
X0245127Y0027594D01*
X0234456Y0027594D01*
X0234456Y0029615D01*
X0234579Y0030073D01*
X0234816Y0030483D01*
X0235151Y0030818D01*
X0235510Y0031026D01*
X0234896Y0031280D01*
X0234221Y0031955D01*
X0233856Y0032838D01*
X0233856Y0037729D01*
X0234221Y0038611D01*
X0234896Y0039287D01*
X0235779Y0039652D01*
X0236344Y0039652D01*
X0236344Y0041022D01*
X0237014Y0042639D01*
X0238252Y0043877D01*
X0239869Y0044546D01*
X0241619Y0044546D01*
X0243236Y0043877D01*
X0244474Y0042639D01*
X0245144Y0041022D01*
X0245144Y0039848D01*
X0245340Y0039652D01*
X0252145Y0039652D01*
X0252145Y0146507D01*
X0236710Y0146507D01*
X0238415Y0144802D01*
X0239344Y0142560D01*
X0239344Y0140715D01*
X0249942Y0140715D01*
X0250824Y0140350D01*
X0251499Y0139674D01*
X0251865Y0138792D01*
X0251865Y0133901D01*
X0251499Y0133018D01*
X0250824Y0132343D01*
X0249942Y0131978D01*
X0237176Y0131978D01*
X0236294Y0132343D01*
X0235619Y0133018D01*
X0235254Y0133901D01*
X0235254Y0135576D01*
X0234457Y0135246D01*
X0232031Y0135246D01*
X0229789Y0136175D01*
X0228244Y0137720D01*
X0226699Y0136175D01*
X0224457Y0135246D01*
X0222031Y0135246D01*
X0219789Y0136175D01*
X0218244Y0137720D01*
X0216699Y0136175D01*
X0214457Y0135246D01*
X0212031Y0135246D01*
X0209789Y0136175D01*
X0208073Y0137891D01*
X0207876Y0138365D01*
X0207439Y0137763D01*
X0206827Y0137151D01*
X0206127Y0136642D01*
X0205355Y0136249D01*
X0204532Y0135982D01*
X0203677Y0135846D01*
X0203444Y0135846D01*
X0203444Y0141146D01*
X0203044Y0141146D01*
X0203044Y0135846D01*
X0202811Y0135846D01*
X0201956Y0135982D01*
X0201133Y0136249D01*
X0200361Y0136642D01*
X0200234Y0136735D01*
X0199887Y0136388D01*
X0191144Y0127645D01*
X0191144Y0087079D01*
X0192031Y0087446D01*
X0194457Y0087446D01*
X0196699Y0086518D01*
X0198244Y0084973D01*
X0199789Y0086518D01*
X0202031Y0087446D01*
X0204457Y0087446D01*
X0206699Y0086518D01*
X0208244Y0084973D01*
X0209789Y0086518D01*
X0212031Y0087446D01*
X0214457Y0087446D01*
X0216699Y0086518D01*
X0218415Y0084802D01*
X0218612Y0084328D01*
X0219049Y0084929D01*
X0219661Y0085542D01*
X0220361Y0086050D01*
X0221133Y0086443D01*
X0221956Y0086711D01*
X0222811Y0086846D01*
X0223044Y0086846D01*
X0223044Y0081547D01*
X0223444Y0081547D01*
X0223444Y0086846D01*
X0223677Y0086846D01*
X0224532Y0086711D01*
X0225355Y0086443D01*
X0226127Y0086050D01*
X0226827Y0085542D01*
X0227439Y0084929D01*
X0227876Y0084328D01*
X0228073Y0084802D01*
X0229789Y0086518D01*
X0232031Y0087446D01*
X0234457Y0087446D01*
X0235254Y0087117D01*
X0235254Y0088792D01*
X0235619Y0089674D01*
X0236294Y0090350D01*
X0237176Y0090715D01*
X0249942Y0090715D01*
X0250824Y0090350D01*
X0251499Y0089674D01*
X0251865Y0088792D01*
X0251865Y0083901D01*
X0251499Y0083018D01*
X0250824Y0082343D01*
X0249942Y0081978D01*
X0239344Y0081978D01*
X0239344Y0080133D01*
X0238415Y0077891D01*
X0236699Y0076175D01*
X0234457Y0075246D01*
X0232031Y0075246D01*
X0229789Y0076175D01*
X0229681Y0076283D01*
X0189757Y0036358D01*
X0189457Y0035634D01*
X0188557Y0034734D01*
X0187381Y0034246D01*
X0186108Y0034246D01*
X0185383Y0034546D01*
X0124945Y0034546D01*
X0121304Y0030905D01*
X0122419Y0030905D01*
X0122419Y0031135D01*
X0122784Y0032017D01*
X0123459Y0032692D01*
X0124341Y0033057D01*
X0128052Y0033057D01*
X0128934Y0032692D01*
X0129150Y0032477D01*
X0129365Y0032692D01*
X0130247Y0033057D01*
X0133958Y0033057D01*
X0134840Y0032692D01*
X0135515Y0032017D01*
X0135732Y0031493D01*
X0148469Y0031694D01*
X0149352Y0032577D01*
X0150969Y0033246D01*
X0152719Y0033246D01*
X0154336Y0032577D01*
X0155574Y0031339D01*
X0156244Y0029722D01*
X0156244Y0027971D01*
X0156244Y0028930D02*
X0234456Y0028930D01*
X0234861Y0030529D02*
X0155910Y0030529D01*
X0154786Y0032127D02*
X0234150Y0032127D01*
X0233856Y0033726D02*
X0124124Y0033726D01*
X0122894Y0032127D02*
X0122526Y0032127D01*
X0126197Y0027705D02*
X0058244Y0027705D01*
X0058244Y0031346D01*
X0052097Y0035496D02*
X0050276Y0033675D01*
X0049291Y0031295D01*
X0049291Y0028720D01*
X0050128Y0026699D01*
X0044735Y0026699D01*
X0043853Y0026334D01*
X0043178Y0025659D01*
X0043044Y0025335D01*
X0043044Y0049517D01*
X0047540Y0049517D01*
X0047850Y0049646D01*
X0048160Y0049517D01*
X0052844Y0049517D01*
X0052844Y0045770D01*
X0053286Y0044704D01*
X0054101Y0043888D01*
X0055167Y0043446D01*
X0088821Y0043446D01*
X0089887Y0043888D01*
X0090703Y0044704D01*
X0093203Y0047204D01*
X0093644Y0048270D01*
X0093644Y0048446D01*
X0107511Y0048446D01*
X0107144Y0047560D01*
X0107144Y0045133D01*
X0108073Y0042891D01*
X0109789Y0041175D01*
X0112031Y0040246D01*
X0114457Y0040246D01*
X0116699Y0041175D01*
X0118415Y0042891D01*
X0119344Y0045133D01*
X0119344Y0047560D01*
X0118977Y0048446D01*
X0138143Y0048446D01*
X0137880Y0047634D01*
X0137744Y0046779D01*
X0137744Y0046432D01*
X0143158Y0046432D01*
X0143158Y0046261D01*
X0137744Y0046261D01*
X0137744Y0045914D01*
X0137880Y0045059D01*
X0138147Y0044235D01*
X0138540Y0043464D01*
X0139049Y0042763D01*
X0139661Y0042151D01*
X0140361Y0041642D01*
X0141133Y0041249D01*
X0141956Y0040982D01*
X0142811Y0040846D01*
X0143158Y0040846D01*
X0143158Y0046261D01*
X0143330Y0046261D01*
X0143330Y0046432D01*
X0148744Y0046432D01*
X0148744Y0046779D01*
X0148609Y0047634D01*
X0148345Y0048446D01*
X0158821Y0048446D01*
X0159887Y0048888D01*
X0160703Y0049704D01*
X0163203Y0052204D01*
X0163644Y0053270D01*
X0163644Y0055403D01*
X0165496Y0055403D01*
X0165786Y0054704D01*
X0166601Y0053888D01*
X0167667Y0053446D01*
X0183821Y0053446D01*
X0184887Y0053888D01*
X0185703Y0054704D01*
X0186402Y0055403D01*
X0192383Y0055403D01*
X0193265Y0055769D01*
X0193940Y0056444D01*
X0194305Y0057326D01*
X0194305Y0065367D01*
X0193940Y0066249D01*
X0193265Y0066924D01*
X0192383Y0067290D01*
X0188289Y0067290D01*
X0189887Y0068888D01*
X0190703Y0069704D01*
X0191144Y0070770D01*
X0191144Y0075614D01*
X0192031Y0075246D01*
X0194457Y0075246D01*
X0196699Y0076175D01*
X0198244Y0077720D01*
X0199789Y0076175D01*
X0202031Y0075246D01*
X0204457Y0075246D01*
X0206699Y0076175D01*
X0208244Y0077720D01*
X0209789Y0076175D01*
X0212031Y0075246D01*
X0214457Y0075246D01*
X0216699Y0076175D01*
X0218415Y0077891D01*
X0218612Y0078365D01*
X0219049Y0077763D01*
X0219661Y0077151D01*
X0220361Y0076642D01*
X0221133Y0076249D01*
X0221369Y0076173D01*
X0189944Y0044748D01*
X0189944Y0046983D01*
X0189457Y0048159D01*
X0188557Y0049059D01*
X0187381Y0049546D01*
X0184305Y0049546D01*
X0184305Y0050367D01*
X0183940Y0051249D01*
X0183265Y0051924D01*
X0182383Y0052290D01*
X0175129Y0052290D01*
X0174247Y0051924D01*
X0173572Y0051249D01*
X0173244Y0050458D01*
X0172916Y0051249D01*
X0172241Y0051924D01*
X0171359Y0052290D01*
X0164105Y0052290D01*
X0163223Y0051924D01*
X0162548Y0051249D01*
X0162183Y0050367D01*
X0162183Y0042326D01*
X0162548Y0041444D01*
X0163223Y0040769D01*
X0164105Y0040403D01*
X0171359Y0040403D01*
X0172241Y0040769D01*
X0172916Y0041444D01*
X0173244Y0042235D01*
X0173572Y0041444D01*
X0174247Y0040769D01*
X0175129Y0040403D01*
X0182383Y0040403D01*
X0183265Y0040769D01*
X0183544Y0041048D01*
X0183544Y0040346D01*
X0123167Y0040346D01*
X0122101Y0039905D01*
X0115254Y0033057D01*
X0112530Y0033057D01*
X0111648Y0032692D01*
X0110973Y0032017D01*
X0110608Y0031135D01*
X0110608Y0030905D01*
X0077198Y0030905D01*
X0077198Y0031295D01*
X0076212Y0033675D01*
X0074391Y0035496D01*
X0072012Y0036481D01*
X0069578Y0036481D01*
X0069387Y0036532D01*
X0068362Y0036532D01*
X0068185Y0036532D01*
X0067950Y0036767D01*
X0067068Y0037132D01*
X0064538Y0037132D01*
X0064524Y0037126D01*
X0064509Y0037132D01*
X0061979Y0037132D01*
X0061965Y0037126D01*
X0061950Y0037132D01*
X0059420Y0037132D01*
X0059406Y0037126D01*
X0059391Y0037132D01*
X0056861Y0037132D01*
X0055979Y0036767D01*
X0055693Y0036481D01*
X0054476Y0036481D01*
X0052097Y0035496D01*
X0051926Y0035324D02*
X0043044Y0035324D01*
X0043044Y0033726D02*
X0050327Y0033726D01*
X0049635Y0032127D02*
X0043044Y0032127D01*
X0043044Y0030529D02*
X0049291Y0030529D01*
X0049291Y0028930D02*
X0043044Y0028930D01*
X0043044Y0027332D02*
X0049866Y0027332D01*
X0043252Y0025733D02*
X0043044Y0025733D01*
X0043044Y0036923D02*
X0056355Y0036923D01*
X0048244Y0041346D02*
X0068362Y0041346D01*
X0068362Y0031976D01*
X0076161Y0033726D02*
X0115922Y0033726D01*
X0117521Y0035324D02*
X0074563Y0035324D01*
X0068362Y0036355D02*
X0068362Y0036355D01*
X0068362Y0036532D01*
X0068362Y0036355D01*
X0067574Y0036923D02*
X0119119Y0036923D01*
X0120718Y0038521D02*
X0043044Y0038521D01*
X0043044Y0040120D02*
X0122620Y0040120D01*
X0117243Y0041718D02*
X0140257Y0041718D01*
X0138647Y0043317D02*
X0118592Y0043317D01*
X0119254Y0044915D02*
X0137926Y0044915D01*
X0137744Y0046514D02*
X0119344Y0046514D01*
X0119115Y0048112D02*
X0138035Y0048112D01*
X0143330Y0046261D02*
X0143330Y0040846D01*
X0143677Y0040846D01*
X0144532Y0040982D01*
X0145355Y0041249D01*
X0146127Y0041642D01*
X0146827Y0042151D01*
X0147439Y0042763D01*
X0147948Y0043464D01*
X0148341Y0044235D01*
X0148609Y0045059D01*
X0148744Y0045914D01*
X0148744Y0046261D01*
X0143330Y0046261D01*
X0143330Y0044915D02*
X0143158Y0044915D01*
X0143158Y0043317D02*
X0143330Y0043317D01*
X0143330Y0041718D02*
X0143158Y0041718D01*
X0146231Y0041718D02*
X0162434Y0041718D01*
X0162183Y0043317D02*
X0147841Y0043317D01*
X0148562Y0044915D02*
X0162183Y0044915D01*
X0162183Y0046514D02*
X0148744Y0046514D01*
X0148453Y0048112D02*
X0162183Y0048112D01*
X0162183Y0049711D02*
X0160710Y0049711D01*
X0162308Y0051309D02*
X0162608Y0051309D01*
X0163494Y0052908D02*
X0198104Y0052908D01*
X0199703Y0054506D02*
X0185505Y0054506D01*
X0183880Y0051309D02*
X0196506Y0051309D01*
X0194907Y0049711D02*
X0184305Y0049711D01*
X0186744Y0046346D02*
X0178756Y0046346D01*
X0167732Y0046346D01*
X0173030Y0041718D02*
X0173458Y0041718D01*
X0186744Y0037446D02*
X0186744Y0046346D01*
X0189944Y0046514D02*
X0191710Y0046514D01*
X0193309Y0048112D02*
X0189476Y0048112D01*
X0189944Y0044915D02*
X0190112Y0044915D01*
X0195117Y0041718D02*
X0215746Y0041718D01*
X0215746Y0041105D02*
X0216111Y0040223D01*
X0216786Y0039548D01*
X0217668Y0039183D01*
X0232009Y0039183D01*
X0232891Y0039548D01*
X0233566Y0040223D01*
X0233931Y0041105D01*
X0233931Y0048359D01*
X0233566Y0049241D01*
X0232891Y0049916D01*
X0232009Y0050282D01*
X0217668Y0050282D01*
X0216786Y0049916D01*
X0216111Y0049241D01*
X0215746Y0048359D01*
X0215746Y0041105D01*
X0216215Y0040120D02*
X0193519Y0040120D01*
X0191920Y0038521D02*
X0234184Y0038521D01*
X0233856Y0036923D02*
X0190321Y0036923D01*
X0189147Y0035324D02*
X0233856Y0035324D01*
X0233463Y0040120D02*
X0236344Y0040120D01*
X0236633Y0041718D02*
X0233931Y0041718D01*
X0233931Y0043317D02*
X0237692Y0043317D01*
X0233931Y0044915D02*
X0252145Y0044915D01*
X0252145Y0043317D02*
X0243796Y0043317D01*
X0244856Y0041718D02*
X0252145Y0041718D01*
X0252145Y0040120D02*
X0245144Y0040120D01*
X0252145Y0046514D02*
X0233931Y0046514D01*
X0233931Y0048112D02*
X0252145Y0048112D01*
X0252145Y0049711D02*
X0233097Y0049711D01*
X0216580Y0049711D02*
X0203110Y0049711D01*
X0204708Y0051309D02*
X0252145Y0051309D01*
X0252145Y0052908D02*
X0206307Y0052908D01*
X0207905Y0054506D02*
X0252145Y0054506D01*
X0252145Y0056105D02*
X0209504Y0056105D01*
X0211102Y0057703D02*
X0252145Y0057703D01*
X0252145Y0059302D02*
X0212701Y0059302D01*
X0214299Y0060900D02*
X0252145Y0060900D01*
X0252145Y0062499D02*
X0215898Y0062499D01*
X0217496Y0064097D02*
X0252145Y0064097D01*
X0252145Y0065696D02*
X0219095Y0065696D01*
X0220693Y0067294D02*
X0252145Y0067294D01*
X0252145Y0068893D02*
X0222292Y0068893D01*
X0223890Y0070491D02*
X0252145Y0070491D01*
X0252145Y0072090D02*
X0225489Y0072090D01*
X0227087Y0073688D02*
X0252145Y0073688D01*
X0252145Y0075287D02*
X0234555Y0075287D01*
X0231933Y0075287D02*
X0228686Y0075287D01*
X0226343Y0081146D02*
X0223444Y0081146D01*
X0223444Y0081546D01*
X0226743Y0081546D01*
X0226343Y0081146D01*
X0223444Y0081681D02*
X0223044Y0081681D01*
X0223044Y0083279D02*
X0223444Y0083279D01*
X0223444Y0084878D02*
X0223044Y0084878D01*
X0223044Y0086476D02*
X0223444Y0086476D01*
X0225254Y0086476D02*
X0229747Y0086476D01*
X0228149Y0084878D02*
X0227477Y0084878D01*
X0221234Y0086476D02*
X0216741Y0086476D01*
X0218339Y0084878D02*
X0219012Y0084878D01*
X0209747Y0086476D02*
X0206741Y0086476D01*
X0199747Y0086476D02*
X0196741Y0086476D01*
X0191144Y0088075D02*
X0235254Y0088075D01*
X0235619Y0089674D02*
X0191144Y0089674D01*
X0191144Y0091272D02*
X0252145Y0091272D01*
X0252145Y0089674D02*
X0251500Y0089674D01*
X0251865Y0088075D02*
X0252145Y0088075D01*
X0252145Y0086476D02*
X0251865Y0086476D01*
X0251865Y0084878D02*
X0252145Y0084878D01*
X0252145Y0083279D02*
X0251607Y0083279D01*
X0252145Y0081681D02*
X0239344Y0081681D01*
X0239323Y0080082D02*
X0252145Y0080082D01*
X0252145Y0078484D02*
X0238661Y0078484D01*
X0237410Y0076885D02*
X0252145Y0076885D01*
X0249702Y0092578D02*
X0243743Y0092578D01*
X0243743Y0096162D01*
X0243375Y0096162D01*
X0243375Y0092578D01*
X0237417Y0092578D01*
X0236959Y0092701D01*
X0236548Y0092938D01*
X0236213Y0093273D01*
X0235976Y0093683D01*
X0235854Y0094141D01*
X0235854Y0096162D01*
X0243375Y0096162D01*
X0243375Y0096531D01*
X0243375Y0100115D01*
X0237417Y0100115D01*
X0236959Y0099992D01*
X0236548Y0099755D01*
X0236213Y0099420D01*
X0235976Y0099010D01*
X0235854Y0098552D01*
X0235854Y0096531D01*
X0243375Y0096531D01*
X0243743Y0096531D01*
X0243743Y0100115D01*
X0249702Y0100115D01*
X0250159Y0099992D01*
X0250570Y0099755D01*
X0250905Y0099420D01*
X0251142Y0099010D01*
X0251265Y0098552D01*
X0251265Y0096531D01*
X0243743Y0096531D01*
X0243743Y0096162D01*
X0251265Y0096162D01*
X0251265Y0094141D01*
X0251142Y0093683D01*
X0250905Y0093273D01*
X0250570Y0092938D01*
X0250159Y0092701D01*
X0249702Y0092578D01*
X0250454Y0092871D02*
X0252145Y0092871D01*
X0252145Y0094469D02*
X0251265Y0094469D01*
X0251265Y0096068D02*
X0252145Y0096068D01*
X0252145Y0097666D02*
X0251265Y0097666D01*
X0250995Y0099265D02*
X0252145Y0099265D01*
X0252145Y0100863D02*
X0191144Y0100863D01*
X0191144Y0099265D02*
X0236123Y0099265D01*
X0235854Y0097666D02*
X0191144Y0097666D01*
X0191144Y0096068D02*
X0235854Y0096068D01*
X0235854Y0094469D02*
X0191144Y0094469D01*
X0191144Y0092871D02*
X0236664Y0092871D01*
X0243375Y0092871D02*
X0243743Y0092871D01*
X0243743Y0094469D02*
X0243375Y0094469D01*
X0243375Y0096068D02*
X0243743Y0096068D01*
X0243743Y0097666D02*
X0243375Y0097666D01*
X0243375Y0099265D02*
X0243743Y0099265D01*
X0249942Y0101978D02*
X0250824Y0102343D01*
X0251499Y0103018D01*
X0251865Y0103901D01*
X0251865Y0108792D01*
X0251499Y0109674D01*
X0250824Y0110350D01*
X0249942Y0110715D01*
X0237176Y0110715D01*
X0236294Y0110350D01*
X0235619Y0109674D01*
X0235254Y0108792D01*
X0235254Y0103901D01*
X0235619Y0103018D01*
X0236294Y0102343D01*
X0237176Y0101978D01*
X0249942Y0101978D01*
X0250942Y0102462D02*
X0252145Y0102462D01*
X0252145Y0104060D02*
X0251865Y0104060D01*
X0251865Y0105659D02*
X0252145Y0105659D01*
X0252145Y0107257D02*
X0251865Y0107257D01*
X0251838Y0108856D02*
X0252145Y0108856D01*
X0252145Y0110454D02*
X0250572Y0110454D01*
X0249942Y0111978D02*
X0250824Y0112343D01*
X0251499Y0113018D01*
X0251865Y0113901D01*
X0251865Y0118792D01*
X0251499Y0119674D01*
X0250824Y0120350D01*
X0249942Y0120715D01*
X0237176Y0120715D01*
X0236294Y0120350D01*
X0235619Y0119674D01*
X0235254Y0118792D01*
X0235254Y0113901D01*
X0235619Y0113018D01*
X0236294Y0112343D01*
X0237176Y0111978D01*
X0249942Y0111978D01*
X0250122Y0112053D02*
X0252145Y0112053D01*
X0252145Y0113651D02*
X0251761Y0113651D01*
X0251865Y0115250D02*
X0252145Y0115250D01*
X0252145Y0116848D02*
X0251865Y0116848D01*
X0251865Y0118447D02*
X0252145Y0118447D01*
X0252145Y0120045D02*
X0251128Y0120045D01*
X0252145Y0121644D02*
X0191144Y0121644D01*
X0191144Y0123242D02*
X0235526Y0123242D01*
X0235619Y0123018D02*
X0236294Y0122343D01*
X0237176Y0121978D01*
X0249942Y0121978D01*
X0250824Y0122343D01*
X0251499Y0123018D01*
X0251865Y0123901D01*
X0251865Y0128792D01*
X0251499Y0129674D01*
X0250824Y0130350D01*
X0249942Y0130715D01*
X0237176Y0130715D01*
X0236294Y0130350D01*
X0235619Y0129674D01*
X0235254Y0128792D01*
X0235254Y0123901D01*
X0235619Y0123018D01*
X0235254Y0124841D02*
X0191144Y0124841D01*
X0191144Y0126439D02*
X0235254Y0126439D01*
X0235254Y0128038D02*
X0191537Y0128038D01*
X0193135Y0129636D02*
X0235603Y0129636D01*
X0235804Y0132833D02*
X0196332Y0132833D01*
X0194734Y0131235D02*
X0252145Y0131235D01*
X0252145Y0132833D02*
X0251314Y0132833D01*
X0251865Y0134432D02*
X0252145Y0134432D01*
X0252145Y0136030D02*
X0251865Y0136030D01*
X0251865Y0137629D02*
X0252145Y0137629D01*
X0252145Y0139227D02*
X0251684Y0139227D01*
X0252145Y0140826D02*
X0239344Y0140826D01*
X0239344Y0142424D02*
X0252145Y0142424D01*
X0252145Y0144023D02*
X0238738Y0144023D01*
X0237596Y0145621D02*
X0252145Y0145621D01*
X0235254Y0134432D02*
X0197931Y0134432D01*
X0199529Y0136030D02*
X0201807Y0136030D01*
X0203044Y0136030D02*
X0203444Y0136030D01*
X0204681Y0136030D02*
X0210138Y0136030D01*
X0208335Y0137629D02*
X0207305Y0137629D01*
X0203444Y0137629D02*
X0203044Y0137629D01*
X0203044Y0139227D02*
X0203444Y0139227D01*
X0203444Y0140826D02*
X0203044Y0140826D01*
X0216350Y0136030D02*
X0220138Y0136030D01*
X0218335Y0137629D02*
X0218153Y0137629D01*
X0226350Y0136030D02*
X0230138Y0136030D01*
X0228335Y0137629D02*
X0228153Y0137629D01*
X0251515Y0129636D02*
X0252145Y0129636D01*
X0252145Y0128038D02*
X0251865Y0128038D01*
X0251865Y0126439D02*
X0252145Y0126439D01*
X0252145Y0124841D02*
X0251865Y0124841D01*
X0251592Y0123242D02*
X0252145Y0123242D01*
X0235990Y0120045D02*
X0191144Y0120045D01*
X0191144Y0118447D02*
X0235254Y0118447D01*
X0235254Y0116848D02*
X0191144Y0116848D01*
X0191144Y0115250D02*
X0235254Y0115250D01*
X0235357Y0113651D02*
X0191144Y0113651D01*
X0191144Y0112053D02*
X0236996Y0112053D01*
X0236547Y0110454D02*
X0191144Y0110454D01*
X0191144Y0108856D02*
X0235280Y0108856D01*
X0235254Y0107257D02*
X0191144Y0107257D01*
X0191144Y0105659D02*
X0235254Y0105659D01*
X0235254Y0104060D02*
X0191144Y0104060D01*
X0191144Y0102462D02*
X0236176Y0102462D01*
X0220027Y0076885D02*
X0217410Y0076885D01*
X0214555Y0075287D02*
X0220483Y0075287D01*
X0218885Y0073688D02*
X0191144Y0073688D01*
X0191144Y0072090D02*
X0217286Y0072090D01*
X0215688Y0070491D02*
X0191029Y0070491D01*
X0189892Y0068893D02*
X0214089Y0068893D01*
X0212491Y0067294D02*
X0188293Y0067294D01*
X0194169Y0065696D02*
X0210892Y0065696D01*
X0209294Y0064097D02*
X0194305Y0064097D01*
X0194305Y0062499D02*
X0207695Y0062499D01*
X0206097Y0060900D02*
X0194305Y0060900D01*
X0194305Y0059302D02*
X0204498Y0059302D01*
X0202900Y0057703D02*
X0194305Y0057703D01*
X0193601Y0056105D02*
X0201301Y0056105D01*
X0201511Y0048112D02*
X0215746Y0048112D01*
X0215746Y0046514D02*
X0199913Y0046514D01*
X0198314Y0044915D02*
X0215746Y0044915D01*
X0215746Y0043317D02*
X0196716Y0043317D01*
X0173632Y0051309D02*
X0172857Y0051309D01*
X0165983Y0054506D02*
X0163644Y0054506D01*
X0147423Y0056746D02*
X0087667Y0056746D01*
X0087207Y0056556D01*
X0083861Y0056556D01*
X0083861Y0056924D01*
X0087446Y0056924D01*
X0087446Y0057687D01*
X0097836Y0057687D01*
X0098718Y0058052D01*
X0099393Y0058727D01*
X0099758Y0059609D01*
X0099758Y0064501D01*
X0099630Y0064811D01*
X0099758Y0065121D01*
X0099758Y0070013D01*
X0099630Y0070323D01*
X0099758Y0070633D01*
X0099758Y0075525D01*
X0099630Y0075835D01*
X0099758Y0076145D01*
X0099758Y0081036D01*
X0099630Y0081346D01*
X0099758Y0081656D01*
X0099758Y0086548D01*
X0099630Y0086858D01*
X0099758Y0087168D01*
X0099758Y0092060D01*
X0099630Y0092370D01*
X0099758Y0092680D01*
X0099758Y0097572D01*
X0099393Y0098454D01*
X0099158Y0098689D01*
X0099158Y0100454D01*
X0092720Y0100454D01*
X0092720Y0100822D01*
X0099158Y0100822D01*
X0099158Y0101131D01*
X0117316Y0082974D01*
X0117144Y0082560D01*
X0117144Y0080133D01*
X0118073Y0077891D01*
X0119789Y0076175D01*
X0122031Y0075246D01*
X0124457Y0075246D01*
X0126699Y0076175D01*
X0128244Y0077720D01*
X0129789Y0076175D01*
X0132031Y0075246D01*
X0134457Y0075246D01*
X0136699Y0076175D01*
X0138244Y0077720D01*
X0139789Y0076175D01*
X0142031Y0075246D01*
X0144457Y0075246D01*
X0146699Y0076175D01*
X0148244Y0077720D01*
X0149789Y0076175D01*
X0152031Y0075246D01*
X0152844Y0075246D01*
X0152844Y0067290D01*
X0149105Y0067290D01*
X0148223Y0066924D01*
X0147548Y0066249D01*
X0147183Y0065367D01*
X0147183Y0057326D01*
X0147423Y0056746D01*
X0147183Y0057703D02*
X0097876Y0057703D01*
X0099631Y0059302D02*
X0147183Y0059302D01*
X0147183Y0060900D02*
X0099758Y0060900D01*
X0099758Y0062499D02*
X0147183Y0062499D01*
X0147183Y0064097D02*
X0099758Y0064097D01*
X0099758Y0065696D02*
X0147319Y0065696D01*
X0152844Y0067294D02*
X0099758Y0067294D01*
X0099758Y0068893D02*
X0152844Y0068893D01*
X0152844Y0070491D02*
X0099700Y0070491D01*
X0099758Y0072090D02*
X0152844Y0072090D01*
X0152844Y0073688D02*
X0099758Y0073688D01*
X0099758Y0075287D02*
X0121933Y0075287D01*
X0124555Y0075287D02*
X0131933Y0075287D01*
X0134555Y0075287D02*
X0141933Y0075287D01*
X0144555Y0075287D02*
X0151933Y0075287D01*
X0149078Y0076885D02*
X0147410Y0076885D01*
X0139078Y0076885D02*
X0137410Y0076885D01*
X0129078Y0076885D02*
X0127410Y0076885D01*
X0119078Y0076885D02*
X0099758Y0076885D01*
X0099758Y0078484D02*
X0117827Y0078484D01*
X0117165Y0080082D02*
X0099758Y0080082D01*
X0099758Y0081681D02*
X0117144Y0081681D01*
X0117010Y0083279D02*
X0099758Y0083279D01*
X0099758Y0084878D02*
X0115411Y0084878D01*
X0113813Y0086476D02*
X0099758Y0086476D01*
X0099758Y0088075D02*
X0112214Y0088075D01*
X0110616Y0089674D02*
X0099758Y0089674D01*
X0099758Y0091272D02*
X0109017Y0091272D01*
X0107419Y0092871D02*
X0099758Y0092871D01*
X0099758Y0094469D02*
X0105820Y0094469D01*
X0104222Y0096068D02*
X0099758Y0096068D01*
X0099719Y0097666D02*
X0102623Y0097666D01*
X0101025Y0099265D02*
X0099158Y0099265D01*
X0099158Y0100863D02*
X0099426Y0100863D01*
X0085913Y0098730D02*
X0085913Y0098689D01*
X0085678Y0098454D01*
X0085313Y0097572D01*
X0085313Y0092680D01*
X0085441Y0092370D01*
X0085313Y0092060D01*
X0085313Y0087168D01*
X0085441Y0086858D01*
X0085313Y0086548D01*
X0085313Y0081656D01*
X0085441Y0081346D01*
X0085313Y0081036D01*
X0085313Y0076145D01*
X0085441Y0075835D01*
X0085313Y0075525D01*
X0085313Y0070633D01*
X0085441Y0070323D01*
X0085313Y0070013D01*
X0085313Y0068725D01*
X0085019Y0068846D01*
X0083269Y0068846D01*
X0081652Y0068177D01*
X0080414Y0066939D01*
X0080187Y0066390D01*
X0079886Y0066089D01*
X0077759Y0063963D01*
X0075719Y0063963D01*
X0075409Y0063835D01*
X0075099Y0063963D01*
X0070208Y0063963D01*
X0069898Y0063835D01*
X0069588Y0063963D01*
X0064696Y0063963D01*
X0064386Y0063835D01*
X0064076Y0063963D01*
X0059519Y0063963D01*
X0060144Y0065471D01*
X0060144Y0067222D01*
X0059474Y0068839D01*
X0058406Y0069907D01*
X0060445Y0071946D01*
X0061619Y0071946D01*
X0063236Y0072616D01*
X0064474Y0073854D01*
X0065144Y0075471D01*
X0065144Y0077222D01*
X0064474Y0078839D01*
X0063236Y0080077D01*
X0061619Y0080746D01*
X0059869Y0080746D01*
X0058252Y0080077D01*
X0057014Y0078839D01*
X0056344Y0077222D01*
X0056344Y0076048D01*
X0044259Y0063963D01*
X0043044Y0063963D01*
X0043044Y0099330D01*
X0044910Y0099330D01*
X0044910Y0105768D01*
X0045279Y0105768D01*
X0045279Y0099330D01*
X0047300Y0099330D01*
X0047758Y0099453D01*
X0047850Y0099506D01*
X0047943Y0099453D01*
X0048401Y0099330D01*
X0050422Y0099330D01*
X0050422Y0105768D01*
X0050791Y0105768D01*
X0050791Y0099330D01*
X0052555Y0099330D01*
X0052790Y0099095D01*
X0053672Y0098730D01*
X0058564Y0098730D01*
X0059446Y0099095D01*
X0059681Y0099330D01*
X0061446Y0099330D01*
X0061446Y0105768D01*
X0061814Y0105768D01*
X0061814Y0099330D01*
X0063579Y0099330D01*
X0063814Y0099095D01*
X0064696Y0098730D01*
X0069588Y0098730D01*
X0069898Y0098858D01*
X0070208Y0098730D01*
X0075099Y0098730D01*
X0075409Y0098858D01*
X0075719Y0098730D01*
X0080611Y0098730D01*
X0080921Y0098858D01*
X0081231Y0098730D01*
X0085913Y0098730D01*
X0085352Y0097666D02*
X0043044Y0097666D01*
X0043044Y0096068D02*
X0085313Y0096068D01*
X0085313Y0094469D02*
X0043044Y0094469D01*
X0043044Y0092871D02*
X0085313Y0092871D01*
X0085313Y0091272D02*
X0043044Y0091272D01*
X0043044Y0089674D02*
X0085313Y0089674D01*
X0085313Y0088075D02*
X0043044Y0088075D01*
X0043044Y0086476D02*
X0085313Y0086476D01*
X0085313Y0084878D02*
X0043044Y0084878D01*
X0043044Y0083279D02*
X0085313Y0083279D01*
X0085313Y0081681D02*
X0043044Y0081681D01*
X0043044Y0080082D02*
X0058266Y0080082D01*
X0056867Y0078484D02*
X0043044Y0078484D01*
X0043044Y0076885D02*
X0056344Y0076885D01*
X0055583Y0075287D02*
X0043044Y0075287D01*
X0043044Y0073688D02*
X0053985Y0073688D01*
X0052386Y0072090D02*
X0043044Y0072090D01*
X0043044Y0070491D02*
X0050788Y0070491D01*
X0049189Y0068893D02*
X0043044Y0068893D01*
X0043044Y0067294D02*
X0047591Y0067294D01*
X0045992Y0065696D02*
X0043044Y0065696D01*
X0043044Y0064097D02*
X0044394Y0064097D01*
X0059575Y0064097D02*
X0077894Y0064097D01*
X0079492Y0065696D02*
X0060144Y0065696D01*
X0060114Y0067294D02*
X0080769Y0067294D01*
X0085313Y0068893D02*
X0059420Y0068893D01*
X0058990Y0070491D02*
X0085371Y0070491D01*
X0085313Y0072090D02*
X0061966Y0072090D01*
X0064309Y0073688D02*
X0085313Y0073688D01*
X0085313Y0075287D02*
X0065068Y0075287D01*
X0065144Y0076885D02*
X0085313Y0076885D01*
X0085313Y0078484D02*
X0064621Y0078484D01*
X0063222Y0080082D02*
X0085313Y0080082D01*
X0063644Y0099265D02*
X0059615Y0099265D01*
X0061446Y0100863D02*
X0061814Y0100863D01*
X0061814Y0102462D02*
X0061446Y0102462D01*
X0061446Y0104060D02*
X0061814Y0104060D01*
X0061814Y0105659D02*
X0061446Y0105659D01*
X0050791Y0105659D02*
X0050422Y0105659D01*
X0050422Y0105768D02*
X0046838Y0105768D01*
X0045279Y0105768D01*
X0045279Y0106137D01*
X0050422Y0106137D01*
X0050422Y0105768D01*
X0050422Y0106137D02*
X0050422Y0112576D01*
X0048401Y0112576D01*
X0047943Y0112453D01*
X0047850Y0112399D01*
X0047758Y0112453D01*
X0047300Y0112576D01*
X0045279Y0112576D01*
X0045279Y0106137D01*
X0044910Y0106137D01*
X0044910Y0112576D01*
X0043044Y0112576D01*
X0043044Y0135948D01*
X0043223Y0135769D01*
X0044105Y0135403D01*
X0046626Y0135403D01*
X0046344Y0134722D01*
X0046344Y0132971D01*
X0047014Y0131354D01*
X0048252Y0130116D01*
X0049869Y0129446D01*
X0051619Y0129446D01*
X0052844Y0129954D01*
X0052844Y0117169D01*
X0052014Y0116339D01*
X0051344Y0114722D01*
X0051344Y0112971D01*
X0051508Y0112576D01*
X0050791Y0112576D01*
X0050791Y0106137D01*
X0050422Y0106137D01*
X0050422Y0107257D02*
X0050791Y0107257D01*
X0050791Y0108856D02*
X0050422Y0108856D01*
X0050422Y0110454D02*
X0050791Y0110454D01*
X0050791Y0112053D02*
X0050422Y0112053D01*
X0051344Y0113651D02*
X0043044Y0113651D01*
X0043044Y0115250D02*
X0051563Y0115250D01*
X0052523Y0116848D02*
X0043044Y0116848D01*
X0043044Y0118447D02*
X0052844Y0118447D01*
X0052844Y0120045D02*
X0043044Y0120045D01*
X0043044Y0121644D02*
X0052844Y0121644D01*
X0052844Y0123242D02*
X0043044Y0123242D01*
X0043044Y0124841D02*
X0052844Y0124841D01*
X0052844Y0126439D02*
X0043044Y0126439D01*
X0043044Y0128038D02*
X0052844Y0128038D01*
X0052844Y0129636D02*
X0052078Y0129636D01*
X0049411Y0129636D02*
X0043044Y0129636D01*
X0043044Y0131235D02*
X0047133Y0131235D01*
X0046401Y0132833D02*
X0043044Y0132833D01*
X0043044Y0134432D02*
X0046344Y0134432D01*
X0070944Y0120045D02*
X0155344Y0120045D01*
X0155344Y0118447D02*
X0119403Y0118447D01*
X0118921Y0118646D02*
X0072767Y0118646D01*
X0071701Y0118205D01*
X0070886Y0117389D01*
X0066672Y0113176D01*
X0064696Y0113176D01*
X0063814Y0112810D01*
X0063579Y0112576D01*
X0063474Y0112576D01*
X0083545Y0132646D01*
X0187943Y0132646D01*
X0185786Y0130489D01*
X0185344Y0129423D01*
X0185344Y0128270D01*
X0185344Y0087079D01*
X0184457Y0087446D01*
X0182031Y0087446D01*
X0179789Y0086518D01*
X0178244Y0084973D01*
X0176699Y0086518D01*
X0174457Y0087446D01*
X0172031Y0087446D01*
X0169789Y0086518D01*
X0168244Y0084973D01*
X0166699Y0086518D01*
X0164457Y0087446D01*
X0162031Y0087446D01*
X0161144Y0087079D01*
X0161144Y0123024D01*
X0161974Y0123854D01*
X0162644Y0125471D01*
X0162644Y0127222D01*
X0161974Y0128839D01*
X0160736Y0130077D01*
X0159119Y0130746D01*
X0157369Y0130746D01*
X0155752Y0130077D01*
X0154514Y0128839D01*
X0153844Y0127222D01*
X0153844Y0125471D01*
X0154514Y0123854D01*
X0155344Y0123024D01*
X0155344Y0087079D01*
X0154457Y0087446D01*
X0152031Y0087446D01*
X0151122Y0087070D01*
X0119987Y0118205D01*
X0118921Y0118646D01*
X0121344Y0116848D02*
X0155344Y0116848D01*
X0155344Y0115250D02*
X0122942Y0115250D01*
X0124541Y0113651D02*
X0155344Y0113651D01*
X0155344Y0112053D02*
X0126139Y0112053D01*
X0127738Y0110454D02*
X0155344Y0110454D01*
X0155344Y0108856D02*
X0129336Y0108856D01*
X0130935Y0107257D02*
X0155344Y0107257D01*
X0161144Y0107257D02*
X0185344Y0107257D01*
X0185344Y0108856D02*
X0161144Y0108856D01*
X0161144Y0110454D02*
X0185344Y0110454D01*
X0185344Y0112053D02*
X0161144Y0112053D01*
X0161144Y0113651D02*
X0185344Y0113651D01*
X0185344Y0115250D02*
X0161144Y0115250D01*
X0161144Y0116848D02*
X0185344Y0116848D01*
X0185344Y0118447D02*
X0161144Y0118447D01*
X0161144Y0120045D02*
X0185344Y0120045D01*
X0185344Y0121644D02*
X0161144Y0121644D01*
X0161362Y0123242D02*
X0185344Y0123242D01*
X0185344Y0124841D02*
X0162383Y0124841D01*
X0162644Y0126439D02*
X0185344Y0126439D01*
X0185344Y0128038D02*
X0162306Y0128038D01*
X0161177Y0129636D02*
X0185432Y0129636D01*
X0186531Y0131235D02*
X0082134Y0131235D01*
X0080535Y0129636D02*
X0155311Y0129636D01*
X0154182Y0128038D02*
X0078937Y0128038D01*
X0077338Y0126439D02*
X0153844Y0126439D01*
X0154105Y0124841D02*
X0075740Y0124841D01*
X0074141Y0123242D02*
X0155126Y0123242D01*
X0155344Y0121644D02*
X0072543Y0121644D01*
X0072285Y0118447D02*
X0069346Y0118447D01*
X0070345Y0116848D02*
X0067747Y0116848D01*
X0068746Y0115250D02*
X0066149Y0115250D01*
X0067148Y0113651D02*
X0064550Y0113651D01*
X0050791Y0104060D02*
X0050422Y0104060D01*
X0050422Y0102462D02*
X0050791Y0102462D01*
X0050791Y0100863D02*
X0050422Y0100863D01*
X0052621Y0099265D02*
X0043044Y0099265D01*
X0044910Y0100863D02*
X0045279Y0100863D01*
X0045279Y0102462D02*
X0044910Y0102462D01*
X0044910Y0104060D02*
X0045279Y0104060D01*
X0045279Y0105659D02*
X0044910Y0105659D01*
X0044910Y0107257D02*
X0045279Y0107257D01*
X0045279Y0108856D02*
X0044910Y0108856D01*
X0044910Y0110454D02*
X0045279Y0110454D01*
X0045279Y0112053D02*
X0044910Y0112053D01*
X0132533Y0105659D02*
X0155344Y0105659D01*
X0155344Y0104060D02*
X0134132Y0104060D01*
X0135730Y0102462D02*
X0155344Y0102462D01*
X0155344Y0100863D02*
X0137329Y0100863D01*
X0138927Y0099265D02*
X0155344Y0099265D01*
X0155344Y0097666D02*
X0140526Y0097666D01*
X0142124Y0096068D02*
X0155344Y0096068D01*
X0155344Y0094469D02*
X0143723Y0094469D01*
X0145321Y0092871D02*
X0155344Y0092871D01*
X0155344Y0091272D02*
X0146920Y0091272D01*
X0148518Y0089674D02*
X0155344Y0089674D01*
X0155344Y0088075D02*
X0150117Y0088075D01*
X0161144Y0088075D02*
X0185344Y0088075D01*
X0185344Y0089674D02*
X0161144Y0089674D01*
X0161144Y0091272D02*
X0185344Y0091272D01*
X0185344Y0092871D02*
X0161144Y0092871D01*
X0161144Y0094469D02*
X0185344Y0094469D01*
X0185344Y0096068D02*
X0161144Y0096068D01*
X0161144Y0097666D02*
X0185344Y0097666D01*
X0185344Y0099265D02*
X0161144Y0099265D01*
X0161144Y0100863D02*
X0185344Y0100863D01*
X0185344Y0102462D02*
X0161144Y0102462D01*
X0161144Y0104060D02*
X0185344Y0104060D01*
X0185344Y0105659D02*
X0161144Y0105659D01*
X0166741Y0086476D02*
X0169747Y0086476D01*
X0176741Y0086476D02*
X0179747Y0086476D01*
X0197410Y0076885D02*
X0199078Y0076885D01*
X0201933Y0075287D02*
X0194555Y0075287D01*
X0191933Y0075287D02*
X0191144Y0075287D01*
X0204555Y0075287D02*
X0211933Y0075287D01*
X0209078Y0076885D02*
X0207410Y0076885D01*
X0148902Y0032127D02*
X0135405Y0032127D01*
X0143743Y0025733D02*
X0148735Y0025733D01*
X0143951Y0024135D02*
X0235017Y0024135D01*
X0234456Y0025733D02*
X0154953Y0025733D01*
X0143951Y0022536D02*
X0216177Y0022536D01*
X0215746Y0020938D02*
X0143874Y0020938D01*
X0142358Y0019339D02*
X0215746Y0019339D01*
X0215746Y0017741D02*
X0143295Y0017741D01*
X0136807Y0019339D02*
X0135721Y0019339D01*
X0135721Y0017741D02*
X0135870Y0017741D01*
X0111083Y0032127D02*
X0076853Y0032127D01*
X0083676Y0024505D02*
X0089621Y0024505D01*
X0089567Y0024374D01*
X0089476Y0023913D01*
X0089476Y0022483D01*
X0093060Y0022483D01*
X0093060Y0022115D01*
X0089476Y0022115D01*
X0089476Y0020686D01*
X0089567Y0020224D01*
X0089748Y0019789D01*
X0090009Y0019397D01*
X0090136Y0019271D01*
X0089331Y0018466D01*
X0088876Y0017367D01*
X0088876Y0016146D01*
X0082122Y0016146D01*
X0082635Y0016359D01*
X0083310Y0017034D01*
X0083676Y0017916D01*
X0083676Y0024505D01*
X0083676Y0024135D02*
X0089520Y0024135D01*
X0089476Y0022536D02*
X0083676Y0022536D01*
X0083676Y0020938D02*
X0089476Y0020938D01*
X0090068Y0019339D02*
X0083676Y0019339D01*
X0083603Y0017741D02*
X0089031Y0017741D01*
X0096352Y0019271D02*
X0096479Y0019397D01*
X0096741Y0019789D01*
X0096921Y0020224D01*
X0097013Y0020686D01*
X0097013Y0022115D01*
X0093428Y0022115D01*
X0093428Y0022483D01*
X0097013Y0022483D01*
X0097013Y0023913D01*
X0096921Y0024374D01*
X0096867Y0024505D01*
X0102537Y0024505D01*
X0102537Y0021125D01*
X0102767Y0020570D01*
X0100943Y0018746D01*
X0096877Y0018746D01*
X0096352Y0019271D01*
X0096421Y0019339D02*
X0101535Y0019339D01*
X0102615Y0020938D02*
X0097013Y0020938D01*
X0097013Y0022536D02*
X0102537Y0022536D01*
X0102537Y0024135D02*
X0096968Y0024135D01*
X0109246Y0041718D02*
X0043044Y0041718D01*
X0043044Y0043317D02*
X0107896Y0043317D01*
X0107234Y0044915D02*
X0090914Y0044915D01*
X0092513Y0046514D02*
X0107144Y0046514D01*
X0107373Y0048112D02*
X0093579Y0048112D01*
X0053198Y0044915D02*
X0043044Y0044915D01*
X0043044Y0046514D02*
X0052844Y0046514D01*
X0052844Y0048112D02*
X0043044Y0048112D01*
X0233500Y0022536D02*
X0252145Y0022536D01*
X0252145Y0020938D02*
X0233931Y0020938D01*
X0233931Y0019339D02*
X0252145Y0019339D01*
X0252145Y0017741D02*
X0233931Y0017741D01*
X0245127Y0024135D02*
X0245495Y0024135D01*
X0245495Y0025733D02*
X0245127Y0025733D01*
D28*
X0238244Y0056346D03*
X0238244Y0071346D03*
X0228244Y0121346D03*
X0108244Y0071346D03*
X0048244Y0041346D03*
X0168244Y0021346D03*
X0048244Y0121346D03*
D29*
X0098244Y0126346D03*
X0098244Y0036346D03*
X0203244Y0036346D03*
D30*
X0240744Y0040146D03*
X0151844Y0028846D03*
X0084144Y0064446D03*
X0060744Y0076346D03*
X0055744Y0066346D03*
X0055744Y0113846D03*
X0060744Y0118846D03*
X0050744Y0133846D03*
X0158244Y0126346D03*
M02*
