G75*
%MOIN*%
%OFA0B0*%
%FSLAX25Y25*%
%IPPOS*%
%LPD*%
%AMOC8*
5,1,8,0,0,1.08239X$1,22.5*
%
%ADD10C,0.08200*%
%ADD11C,0.04343*%
%ADD12C,0.06312*%
%ADD13C,0.04146*%
%ADD14R,0.04762X0.04762*%
%ADD15C,0.13461*%
%ADD16C,0.04800*%
D10*
X0113244Y0046346D03*
X0143244Y0046346D03*
X0143244Y0081346D03*
X0133244Y0081346D03*
X0123244Y0081346D03*
X0153244Y0081346D03*
X0163244Y0081346D03*
X0173244Y0081346D03*
X0183244Y0081346D03*
X0193244Y0081346D03*
X0203244Y0081346D03*
X0213244Y0081346D03*
X0223244Y0081346D03*
X0233244Y0081346D03*
X0233244Y0141346D03*
X0223244Y0141346D03*
X0213244Y0141346D03*
X0203244Y0141346D03*
X0193244Y0141346D03*
X0183244Y0141346D03*
X0173244Y0141346D03*
X0163244Y0141346D03*
X0153244Y0141346D03*
X0143244Y0141346D03*
X0133244Y0141346D03*
X0123244Y0141346D03*
D11*
X0117339Y0018846D03*
X0129150Y0018846D03*
D12*
X0263244Y0091346D03*
X0263244Y0131346D03*
D13*
X0055764Y0030008D03*
X0070724Y0030008D03*
D14*
X0048244Y0041346D03*
X0108244Y0071346D03*
X0168244Y0021346D03*
X0238244Y0056346D03*
X0238244Y0071346D03*
X0228244Y0121346D03*
X0048244Y0121346D03*
D15*
X0098244Y0126346D03*
X0098244Y0036346D03*
X0203244Y0036346D03*
D16*
X0240744Y0040146D03*
X0151844Y0028846D03*
X0084144Y0064446D03*
X0060744Y0076346D03*
X0055744Y0066346D03*
X0055744Y0113846D03*
X0060744Y0118846D03*
X0050744Y0133846D03*
X0158244Y0126346D03*
M02*
