G75*
%MOIN*%
%OFA0B0*%
%FSLAX25Y25*%
%IPPOS*%
%LPD*%
%AMOC8*
5,1,8,0,0,1.08239X$1,22.5*
%
%ADD10C,0.00500*%
%ADD11C,0.00700*%
%ADD12C,0.00800*%
%ADD13C,0.00600*%
D10*
X0002969Y0062626D02*
X0002969Y0113807D01*
X0040370Y0113807D01*
X0087614Y0113807D02*
X0093520Y0113807D01*
X0093520Y0111839D01*
X0093520Y0064594D02*
X0093520Y0062626D01*
X0087614Y0062626D01*
X0040370Y0062626D02*
X0002969Y0062626D01*
X0215528Y0048965D02*
X0215528Y0045618D01*
X0225370Y0045618D01*
X0225370Y0040106D01*
X0231276Y0048965D02*
X0215528Y0048965D01*
X0245055Y0042075D02*
X0245055Y0024358D01*
X0231276Y0017469D02*
X0215528Y0017469D01*
X0215528Y0020815D01*
X0225370Y0020815D01*
X0225370Y0026327D01*
D11*
X0213677Y0021045D02*
X0210407Y0021045D01*
X0212042Y0019410D02*
X0212042Y0022680D01*
X0212042Y0041910D02*
X0212042Y0045180D01*
D12*
X0076630Y0012508D02*
X0049858Y0012508D01*
X0049858Y0023138D02*
X0049858Y0029437D01*
X0054583Y0029437D01*
X0054583Y0023925D01*
X0071906Y0023925D01*
X0071906Y0029437D01*
X0076630Y0029437D01*
X0076630Y0023138D01*
X0117555Y0020835D02*
X0117555Y0010598D01*
X0143933Y0010598D01*
X0143933Y0020835D01*
X0117555Y0020835D01*
X0186433Y0058886D02*
X0188244Y0058886D01*
X0189165Y0057665D01*
X0190055Y0058886D02*
X0188244Y0058886D01*
X0188144Y0058825D02*
X0187384Y0057665D01*
X0116244Y0113217D02*
X0113244Y0113217D01*
X0113244Y0112217D01*
X0113244Y0113217D02*
X0110244Y0113217D01*
X0110244Y0133217D01*
X0113244Y0133217D01*
X0113244Y0134217D01*
X0113244Y0133217D02*
X0116244Y0133217D01*
X0116244Y0113217D01*
D13*
X0114877Y0120467D02*
X0115444Y0121034D01*
X0115444Y0122169D01*
X0114877Y0122736D01*
X0114310Y0122736D01*
X0113743Y0122169D01*
X0113743Y0121601D01*
X0113743Y0122169D02*
X0113175Y0122736D01*
X0112608Y0122736D01*
X0112041Y0122169D01*
X0112041Y0121034D01*
X0112608Y0120467D01*
X0112608Y0124150D02*
X0112041Y0124717D01*
X0112041Y0125852D01*
X0112608Y0126419D01*
X0113175Y0126419D01*
X0113743Y0125852D01*
X0114310Y0126419D01*
X0114877Y0126419D01*
X0115444Y0125852D01*
X0115444Y0124717D01*
X0114877Y0124150D01*
X0113743Y0125285D02*
X0113743Y0125852D01*
X0114877Y0127833D02*
X0112608Y0127833D01*
X0112041Y0128401D01*
X0112041Y0129535D01*
X0112608Y0130102D01*
X0114877Y0127833D01*
X0115444Y0128401D01*
X0115444Y0129535D01*
X0114877Y0130102D01*
X0112608Y0130102D01*
M02*
