G75*
%MOIN*%
%OFA0B0*%
%FSLAX25Y25*%
%IPPOS*%
%LPD*%
%AMOC8*
5,1,8,0,0,1.08239X$1,22.5*
%
%ADD10C,0.00000*%
%ADD11R,0.03937X0.09646*%
%ADD12R,0.09646X0.03937*%
%ADD13C,0.07400*%
%ADD14R,0.18110X0.03937*%
%ADD15R,0.13386X0.06299*%
%ADD16R,0.03937X0.03150*%
%ADD17R,0.02756X0.05906*%
%ADD18C,0.01181*%
%ADD19R,0.06299X0.07087*%
%ADD20R,0.07087X0.06299*%
%ADD21R,0.01378X0.05512*%
%ADD22R,0.07087X0.07480*%
%ADD23R,0.07480X0.07480*%
%ADD24C,0.01000*%
%ADD25C,0.04000*%
%ADD26C,0.01600*%
%ADD27C,0.03962*%
%ADD28C,0.09449*%
D10*
X0038244Y0008217D02*
X0038244Y0148177D01*
X0256945Y0148177D01*
X0256945Y0008217D01*
X0038244Y0008217D01*
X0123067Y0015717D02*
X0123069Y0015801D01*
X0123075Y0015884D01*
X0123085Y0015967D01*
X0123099Y0016050D01*
X0123116Y0016132D01*
X0123138Y0016213D01*
X0123163Y0016292D01*
X0123192Y0016371D01*
X0123225Y0016448D01*
X0123261Y0016523D01*
X0123301Y0016597D01*
X0123344Y0016669D01*
X0123391Y0016738D01*
X0123441Y0016805D01*
X0123494Y0016870D01*
X0123550Y0016932D01*
X0123608Y0016992D01*
X0123670Y0017049D01*
X0123734Y0017102D01*
X0123801Y0017153D01*
X0123870Y0017200D01*
X0123941Y0017245D01*
X0124014Y0017285D01*
X0124089Y0017322D01*
X0124166Y0017356D01*
X0124244Y0017386D01*
X0124323Y0017412D01*
X0124404Y0017435D01*
X0124486Y0017453D01*
X0124568Y0017468D01*
X0124651Y0017479D01*
X0124734Y0017486D01*
X0124818Y0017489D01*
X0124902Y0017488D01*
X0124985Y0017483D01*
X0125069Y0017474D01*
X0125151Y0017461D01*
X0125233Y0017445D01*
X0125314Y0017424D01*
X0125395Y0017400D01*
X0125473Y0017372D01*
X0125551Y0017340D01*
X0125627Y0017304D01*
X0125701Y0017265D01*
X0125773Y0017223D01*
X0125843Y0017177D01*
X0125911Y0017128D01*
X0125976Y0017076D01*
X0126039Y0017021D01*
X0126099Y0016963D01*
X0126157Y0016902D01*
X0126211Y0016838D01*
X0126263Y0016772D01*
X0126311Y0016704D01*
X0126356Y0016633D01*
X0126397Y0016560D01*
X0126436Y0016486D01*
X0126470Y0016410D01*
X0126501Y0016332D01*
X0126528Y0016253D01*
X0126552Y0016172D01*
X0126571Y0016091D01*
X0126587Y0016009D01*
X0126599Y0015926D01*
X0126607Y0015842D01*
X0126611Y0015759D01*
X0126611Y0015675D01*
X0126607Y0015592D01*
X0126599Y0015508D01*
X0126587Y0015425D01*
X0126571Y0015343D01*
X0126552Y0015262D01*
X0126528Y0015181D01*
X0126501Y0015102D01*
X0126470Y0015024D01*
X0126436Y0014948D01*
X0126397Y0014874D01*
X0126356Y0014801D01*
X0126311Y0014730D01*
X0126263Y0014662D01*
X0126211Y0014596D01*
X0126157Y0014532D01*
X0126099Y0014471D01*
X0126039Y0014413D01*
X0125976Y0014358D01*
X0125911Y0014306D01*
X0125843Y0014257D01*
X0125773Y0014211D01*
X0125701Y0014169D01*
X0125627Y0014130D01*
X0125551Y0014094D01*
X0125473Y0014062D01*
X0125395Y0014034D01*
X0125314Y0014010D01*
X0125233Y0013989D01*
X0125151Y0013973D01*
X0125069Y0013960D01*
X0124985Y0013951D01*
X0124902Y0013946D01*
X0124818Y0013945D01*
X0124734Y0013948D01*
X0124651Y0013955D01*
X0124568Y0013966D01*
X0124486Y0013981D01*
X0124404Y0013999D01*
X0124323Y0014022D01*
X0124244Y0014048D01*
X0124166Y0014078D01*
X0124089Y0014112D01*
X0124014Y0014149D01*
X0123941Y0014189D01*
X0123870Y0014234D01*
X0123801Y0014281D01*
X0123734Y0014332D01*
X0123670Y0014385D01*
X0123608Y0014442D01*
X0123550Y0014502D01*
X0123494Y0014564D01*
X0123441Y0014629D01*
X0123391Y0014696D01*
X0123344Y0014765D01*
X0123301Y0014837D01*
X0123261Y0014911D01*
X0123225Y0014986D01*
X0123192Y0015063D01*
X0123163Y0015142D01*
X0123138Y0015221D01*
X0123116Y0015302D01*
X0123099Y0015384D01*
X0123085Y0015467D01*
X0123075Y0015550D01*
X0123069Y0015633D01*
X0123067Y0015717D01*
X0134878Y0015717D02*
X0134880Y0015801D01*
X0134886Y0015884D01*
X0134896Y0015967D01*
X0134910Y0016050D01*
X0134927Y0016132D01*
X0134949Y0016213D01*
X0134974Y0016292D01*
X0135003Y0016371D01*
X0135036Y0016448D01*
X0135072Y0016523D01*
X0135112Y0016597D01*
X0135155Y0016669D01*
X0135202Y0016738D01*
X0135252Y0016805D01*
X0135305Y0016870D01*
X0135361Y0016932D01*
X0135419Y0016992D01*
X0135481Y0017049D01*
X0135545Y0017102D01*
X0135612Y0017153D01*
X0135681Y0017200D01*
X0135752Y0017245D01*
X0135825Y0017285D01*
X0135900Y0017322D01*
X0135977Y0017356D01*
X0136055Y0017386D01*
X0136134Y0017412D01*
X0136215Y0017435D01*
X0136297Y0017453D01*
X0136379Y0017468D01*
X0136462Y0017479D01*
X0136545Y0017486D01*
X0136629Y0017489D01*
X0136713Y0017488D01*
X0136796Y0017483D01*
X0136880Y0017474D01*
X0136962Y0017461D01*
X0137044Y0017445D01*
X0137125Y0017424D01*
X0137206Y0017400D01*
X0137284Y0017372D01*
X0137362Y0017340D01*
X0137438Y0017304D01*
X0137512Y0017265D01*
X0137584Y0017223D01*
X0137654Y0017177D01*
X0137722Y0017128D01*
X0137787Y0017076D01*
X0137850Y0017021D01*
X0137910Y0016963D01*
X0137968Y0016902D01*
X0138022Y0016838D01*
X0138074Y0016772D01*
X0138122Y0016704D01*
X0138167Y0016633D01*
X0138208Y0016560D01*
X0138247Y0016486D01*
X0138281Y0016410D01*
X0138312Y0016332D01*
X0138339Y0016253D01*
X0138363Y0016172D01*
X0138382Y0016091D01*
X0138398Y0016009D01*
X0138410Y0015926D01*
X0138418Y0015842D01*
X0138422Y0015759D01*
X0138422Y0015675D01*
X0138418Y0015592D01*
X0138410Y0015508D01*
X0138398Y0015425D01*
X0138382Y0015343D01*
X0138363Y0015262D01*
X0138339Y0015181D01*
X0138312Y0015102D01*
X0138281Y0015024D01*
X0138247Y0014948D01*
X0138208Y0014874D01*
X0138167Y0014801D01*
X0138122Y0014730D01*
X0138074Y0014662D01*
X0138022Y0014596D01*
X0137968Y0014532D01*
X0137910Y0014471D01*
X0137850Y0014413D01*
X0137787Y0014358D01*
X0137722Y0014306D01*
X0137654Y0014257D01*
X0137584Y0014211D01*
X0137512Y0014169D01*
X0137438Y0014130D01*
X0137362Y0014094D01*
X0137284Y0014062D01*
X0137206Y0014034D01*
X0137125Y0014010D01*
X0137044Y0013989D01*
X0136962Y0013973D01*
X0136880Y0013960D01*
X0136796Y0013951D01*
X0136713Y0013946D01*
X0136629Y0013945D01*
X0136545Y0013948D01*
X0136462Y0013955D01*
X0136379Y0013966D01*
X0136297Y0013981D01*
X0136215Y0013999D01*
X0136134Y0014022D01*
X0136055Y0014048D01*
X0135977Y0014078D01*
X0135900Y0014112D01*
X0135825Y0014149D01*
X0135752Y0014189D01*
X0135681Y0014234D01*
X0135612Y0014281D01*
X0135545Y0014332D01*
X0135481Y0014385D01*
X0135419Y0014442D01*
X0135361Y0014502D01*
X0135305Y0014564D01*
X0135252Y0014629D01*
X0135202Y0014696D01*
X0135155Y0014765D01*
X0135112Y0014837D01*
X0135072Y0014911D01*
X0135036Y0014986D01*
X0135003Y0015063D01*
X0134974Y0015142D01*
X0134949Y0015221D01*
X0134927Y0015302D01*
X0134910Y0015384D01*
X0134896Y0015467D01*
X0134886Y0015550D01*
X0134880Y0015633D01*
X0134878Y0015717D01*
D11*
X0083677Y0063610D03*
X0078165Y0063610D03*
X0072654Y0063610D03*
X0067142Y0063610D03*
X0061630Y0063610D03*
X0056118Y0063610D03*
X0050606Y0063610D03*
X0045094Y0063610D03*
X0045094Y0112823D03*
X0050606Y0112823D03*
X0056118Y0112823D03*
X0061630Y0112823D03*
X0067142Y0112823D03*
X0072654Y0112823D03*
X0078165Y0112823D03*
X0083677Y0112823D03*
D12*
X0092535Y0107508D03*
X0092535Y0101996D03*
X0092535Y0096484D03*
X0092535Y0090972D03*
X0092535Y0085461D03*
X0092535Y0079949D03*
X0092535Y0074437D03*
X0092535Y0068925D03*
D13*
X0133244Y0078217D03*
X0143244Y0078217D03*
X0153244Y0078217D03*
X0163244Y0078217D03*
X0173244Y0078217D03*
X0183244Y0078217D03*
X0193244Y0078217D03*
X0203244Y0078217D03*
X0213244Y0078217D03*
X0223244Y0078217D03*
X0233244Y0078217D03*
X0243244Y0078217D03*
X0243244Y0138217D03*
X0233244Y0138217D03*
X0223244Y0138217D03*
X0213244Y0138217D03*
X0203244Y0138217D03*
X0193244Y0138217D03*
X0183244Y0138217D03*
X0173244Y0138217D03*
X0163244Y0138217D03*
X0153244Y0138217D03*
X0143244Y0138217D03*
X0133244Y0138217D03*
X0113244Y0138217D03*
X0113244Y0108217D03*
D14*
X0218677Y0037154D03*
X0218677Y0029280D03*
D15*
X0239150Y0019831D03*
X0239150Y0046602D03*
D16*
X0147083Y0020047D03*
X0147083Y0011386D03*
X0114406Y0011386D03*
X0114406Y0020047D03*
D17*
X0121886Y0024575D03*
X0133697Y0024575D03*
X0139602Y0024575D03*
D18*
X0186866Y0053386D02*
X0189622Y0053386D01*
X0186866Y0053386D02*
X0186866Y0056142D01*
X0189622Y0056142D01*
X0189622Y0053386D01*
X0189622Y0054566D02*
X0186866Y0054566D01*
X0186866Y0055746D02*
X0189622Y0055746D01*
X0189622Y0060291D02*
X0186866Y0060291D01*
X0186866Y0063047D01*
X0189622Y0063047D01*
X0189622Y0060291D01*
X0189622Y0061471D02*
X0186866Y0061471D01*
X0186866Y0062651D02*
X0189622Y0062651D01*
D19*
X0153756Y0043217D03*
X0142732Y0043217D03*
X0118756Y0043217D03*
X0107732Y0043217D03*
X0088756Y0043217D03*
X0077732Y0043217D03*
X0058756Y0043217D03*
X0047732Y0043217D03*
D20*
X0188244Y0043728D03*
X0188244Y0032705D03*
D21*
X0068362Y0028650D03*
X0065803Y0028650D03*
X0063244Y0028650D03*
X0060685Y0028650D03*
X0058126Y0028650D03*
D22*
X0047496Y0018217D03*
X0078992Y0018217D03*
D23*
X0068244Y0018217D03*
X0058244Y0018217D03*
D24*
X0058126Y0028650D02*
X0058044Y0028917D01*
X0058044Y0031617D01*
X0059844Y0033417D01*
X0122844Y0033417D01*
X0123744Y0032517D01*
X0129144Y0032517D02*
X0187644Y0032517D01*
X0188244Y0032705D01*
X0188544Y0033417D01*
X0195744Y0033417D01*
X0239844Y0077517D01*
X0242544Y0077517D01*
X0243244Y0078217D01*
X0218244Y0075717D02*
X0218244Y0081117D01*
X0166944Y0132417D01*
X0139044Y0132417D01*
X0133244Y0138217D01*
X0118344Y0143217D02*
X0113844Y0138717D01*
X0113244Y0138217D01*
X0112944Y0137817D01*
X0077844Y0137817D01*
X0056244Y0116217D01*
X0056244Y0113517D01*
X0056118Y0112823D01*
X0067142Y0112823D02*
X0067944Y0113517D01*
X0067944Y0117117D01*
X0077844Y0127017D01*
X0127344Y0127017D01*
X0162444Y0091917D01*
X0162444Y0078417D01*
X0163244Y0078217D01*
X0143244Y0078217D02*
X0142644Y0078417D01*
X0142644Y0109017D01*
X0131844Y0119817D01*
X0081444Y0119817D01*
X0078744Y0117117D01*
X0078744Y0113517D01*
X0078165Y0112823D01*
X0073344Y0113517D02*
X0072654Y0112823D01*
X0073344Y0113517D02*
X0073344Y0117117D01*
X0079644Y0123417D01*
X0111144Y0123417D01*
X0126444Y0113517D02*
X0129144Y0116217D01*
X0132744Y0116217D01*
X0134544Y0114417D01*
X0134544Y0079317D01*
X0133644Y0078417D01*
X0133244Y0078217D01*
X0118344Y0071217D02*
X0118344Y0100017D01*
X0130944Y0112617D01*
X0126444Y0113517D02*
X0084144Y0113517D01*
X0083677Y0112823D01*
X0118344Y0143217D02*
X0195744Y0143217D01*
X0200244Y0138717D01*
X0202944Y0138717D01*
X0203244Y0138217D01*
X0213244Y0078217D02*
X0212844Y0077517D01*
X0218244Y0075717D02*
X0213744Y0071217D01*
X0192144Y0071217D01*
X0158844Y0037917D01*
X0070644Y0037917D01*
X0066144Y0042417D01*
X0058944Y0042417D01*
X0058756Y0043217D01*
X0067944Y0043317D02*
X0054444Y0056817D01*
X0053544Y0056817D01*
X0050844Y0059517D01*
X0050844Y0063117D01*
X0050606Y0063610D01*
X0047244Y0061317D02*
X0045444Y0063117D01*
X0045094Y0063610D01*
X0047244Y0061317D02*
X0047244Y0043317D01*
X0047732Y0043217D01*
X0062544Y0053217D02*
X0056244Y0059517D01*
X0056244Y0063117D01*
X0056118Y0063610D01*
X0061630Y0063610D02*
X0061644Y0063117D01*
X0061644Y0060417D01*
X0067044Y0055017D01*
X0103944Y0055017D01*
X0114744Y0065817D01*
X0120144Y0065817D01*
X0142644Y0043317D01*
X0142732Y0043217D01*
X0153444Y0043317D02*
X0153756Y0043217D01*
X0153444Y0043317D02*
X0132744Y0064017D01*
X0118344Y0062217D02*
X0118344Y0043317D01*
X0118756Y0043217D01*
X0107732Y0043217D02*
X0107544Y0043317D01*
X0097644Y0043317D01*
X0087744Y0053217D01*
X0062544Y0053217D01*
X0067142Y0063610D02*
X0067944Y0064017D01*
X0072444Y0064017D01*
X0072654Y0063610D01*
X0073344Y0064017D01*
X0077844Y0064017D01*
X0078165Y0063610D01*
X0078744Y0063117D01*
X0078744Y0059517D01*
X0085944Y0049617D02*
X0088644Y0046917D01*
X0088644Y0043317D01*
X0088756Y0043217D01*
X0077732Y0043217D02*
X0076944Y0043317D01*
X0067944Y0043317D01*
X0121944Y0025317D02*
X0121886Y0024575D01*
X0121944Y0025317D02*
X0129144Y0032517D01*
X0129144Y0027117D02*
X0131844Y0027117D01*
X0133644Y0025317D01*
X0133697Y0024575D01*
X0133644Y0025317D02*
X0137244Y0028917D01*
X0141744Y0028917D01*
X0142644Y0028017D01*
X0192144Y0028017D01*
X0193044Y0028917D01*
X0218244Y0028917D01*
X0218677Y0029280D01*
X0188544Y0044217D02*
X0188244Y0043728D01*
X0188544Y0044217D02*
X0188544Y0054117D01*
X0188244Y0054764D01*
D25*
X0132744Y0064017D03*
X0118344Y0062217D03*
X0118344Y0071217D03*
X0085944Y0049617D03*
X0123744Y0032517D03*
X0129144Y0027117D03*
X0130944Y0112617D03*
X0111144Y0123417D03*
D26*
X0108294Y0110617D02*
X0098764Y0110617D01*
X0098799Y0110582D01*
X0099036Y0110171D01*
X0099158Y0109713D01*
X0099158Y0107692D01*
X0092720Y0107692D01*
X0092720Y0107324D01*
X0107817Y0107324D01*
X0107880Y0106929D02*
X0108147Y0106105D01*
X0108540Y0105334D01*
X0109049Y0104634D01*
X0109661Y0104021D01*
X0110361Y0103513D01*
X0111133Y0103119D01*
X0111956Y0102852D01*
X0112811Y0102717D01*
X0113158Y0102717D01*
X0113158Y0108131D01*
X0107744Y0108131D01*
X0107744Y0107784D01*
X0107880Y0106929D01*
X0108340Y0105726D02*
X0099158Y0105726D01*
X0099158Y0105559D02*
X0099158Y0107324D01*
X0092720Y0107324D01*
X0085913Y0105600D02*
X0085913Y0105559D01*
X0085678Y0105324D01*
X0085313Y0104442D01*
X0085313Y0099550D01*
X0085441Y0099240D01*
X0085313Y0098930D01*
X0085313Y0094038D01*
X0085441Y0093728D01*
X0085313Y0093418D01*
X0085313Y0088527D01*
X0085441Y0088217D01*
X0085313Y0087907D01*
X0085313Y0083015D01*
X0085441Y0082705D01*
X0085313Y0082395D01*
X0085313Y0077503D01*
X0085441Y0077193D01*
X0085313Y0076883D01*
X0085313Y0071991D01*
X0085441Y0071681D01*
X0085313Y0071371D01*
X0085313Y0070233D01*
X0083861Y0070233D01*
X0083861Y0063795D01*
X0083493Y0063795D01*
X0083493Y0070233D01*
X0081728Y0070233D01*
X0081493Y0070468D01*
X0080611Y0070833D01*
X0075719Y0070833D01*
X0075409Y0070705D01*
X0075099Y0070833D01*
X0070208Y0070833D01*
X0069898Y0070705D01*
X0069588Y0070833D01*
X0064696Y0070833D01*
X0064386Y0070705D01*
X0064076Y0070833D01*
X0059184Y0070833D01*
X0058874Y0070705D01*
X0058564Y0070833D01*
X0053672Y0070833D01*
X0053362Y0070705D01*
X0053052Y0070833D01*
X0048160Y0070833D01*
X0047850Y0070705D01*
X0047540Y0070833D01*
X0043044Y0070833D01*
X0043044Y0106200D01*
X0044910Y0106200D01*
X0044910Y0112638D01*
X0045279Y0112638D01*
X0045279Y0106200D01*
X0047300Y0106200D01*
X0047758Y0106323D01*
X0047850Y0106376D01*
X0047943Y0106323D01*
X0048401Y0106200D01*
X0050422Y0106200D01*
X0050422Y0112638D01*
X0050791Y0112638D01*
X0050791Y0106200D01*
X0052555Y0106200D01*
X0052790Y0105965D01*
X0053672Y0105600D01*
X0058564Y0105600D01*
X0059446Y0105965D01*
X0059681Y0106200D01*
X0061446Y0106200D01*
X0061446Y0112638D01*
X0061814Y0112638D01*
X0061814Y0106200D01*
X0063579Y0106200D01*
X0063814Y0105965D01*
X0064696Y0105600D01*
X0069588Y0105600D01*
X0069898Y0105728D01*
X0070208Y0105600D01*
X0075099Y0105600D01*
X0075409Y0105728D01*
X0075719Y0105600D01*
X0080611Y0105600D01*
X0080921Y0105728D01*
X0081231Y0105600D01*
X0085913Y0105600D01*
X0085313Y0104127D02*
X0043044Y0104127D01*
X0043044Y0102529D02*
X0085313Y0102529D01*
X0085313Y0100930D02*
X0043044Y0100930D01*
X0043044Y0099332D02*
X0085403Y0099332D01*
X0085313Y0097733D02*
X0043044Y0097733D01*
X0043044Y0096135D02*
X0085313Y0096135D01*
X0085313Y0094536D02*
X0043044Y0094536D01*
X0043044Y0092938D02*
X0085313Y0092938D01*
X0085313Y0091339D02*
X0043044Y0091339D01*
X0043044Y0089741D02*
X0085313Y0089741D01*
X0085410Y0088142D02*
X0043044Y0088142D01*
X0043044Y0086544D02*
X0085313Y0086544D01*
X0085313Y0084945D02*
X0043044Y0084945D01*
X0043044Y0083347D02*
X0085313Y0083347D01*
X0085313Y0081748D02*
X0043044Y0081748D01*
X0043044Y0080150D02*
X0085313Y0080150D01*
X0085313Y0078551D02*
X0043044Y0078551D01*
X0043044Y0076953D02*
X0085341Y0076953D01*
X0085313Y0075354D02*
X0043044Y0075354D01*
X0043044Y0073755D02*
X0085313Y0073755D01*
X0085313Y0072157D02*
X0043044Y0072157D01*
X0078744Y0059517D02*
X0081444Y0056817D01*
X0103044Y0056817D01*
X0113844Y0067617D01*
X0185844Y0067617D01*
X0191244Y0073017D01*
X0208344Y0073017D01*
X0212844Y0077517D01*
X0218786Y0072157D02*
X0221933Y0072157D01*
X0222031Y0072117D02*
X0224457Y0072117D01*
X0226699Y0073045D01*
X0228415Y0074761D01*
X0228612Y0075235D01*
X0229049Y0074634D01*
X0229661Y0074021D01*
X0230361Y0073513D01*
X0231133Y0073119D01*
X0231294Y0073067D01*
X0194543Y0036317D01*
X0194187Y0036317D01*
X0194187Y0036332D01*
X0193822Y0037214D01*
X0193147Y0037889D01*
X0192356Y0038217D01*
X0193147Y0038544D01*
X0193822Y0039219D01*
X0194187Y0040101D01*
X0194187Y0047355D01*
X0193822Y0048237D01*
X0193147Y0048913D01*
X0192265Y0049278D01*
X0191444Y0049278D01*
X0191444Y0050979D01*
X0192157Y0051692D01*
X0192613Y0052791D01*
X0192613Y0056737D01*
X0192157Y0057836D01*
X0191352Y0058641D01*
X0191479Y0058767D01*
X0191741Y0059159D01*
X0191921Y0059594D01*
X0192013Y0060056D01*
X0192013Y0061485D01*
X0188428Y0061485D01*
X0188428Y0061854D01*
X0192013Y0061854D01*
X0192013Y0063283D01*
X0191921Y0063745D01*
X0191741Y0064180D01*
X0191479Y0064571D01*
X0191146Y0064904D01*
X0190754Y0065166D01*
X0190358Y0065330D01*
X0193345Y0068317D01*
X0214321Y0068317D01*
X0215387Y0068758D01*
X0219731Y0073103D01*
X0219789Y0073045D01*
X0222031Y0072117D01*
X0224555Y0072157D02*
X0230383Y0072157D01*
X0230027Y0073755D02*
X0227410Y0073755D01*
X0228785Y0070558D02*
X0217187Y0070558D01*
X0215589Y0068960D02*
X0227186Y0068960D01*
X0225588Y0067361D02*
X0192390Y0067361D01*
X0190792Y0065763D02*
X0223989Y0065763D01*
X0222391Y0064164D02*
X0191747Y0064164D01*
X0192013Y0062566D02*
X0220792Y0062566D01*
X0219194Y0060967D02*
X0192013Y0060967D01*
X0191827Y0059369D02*
X0217595Y0059369D01*
X0215997Y0057770D02*
X0192184Y0057770D01*
X0192613Y0056172D02*
X0214398Y0056172D01*
X0212800Y0054573D02*
X0192613Y0054573D01*
X0192613Y0052975D02*
X0211201Y0052975D01*
X0209603Y0051376D02*
X0191842Y0051376D01*
X0191444Y0049778D02*
X0208004Y0049778D01*
X0206406Y0048179D02*
X0193846Y0048179D01*
X0194187Y0046581D02*
X0204807Y0046581D01*
X0203209Y0044982D02*
X0194187Y0044982D01*
X0194187Y0043384D02*
X0201610Y0043384D01*
X0200012Y0041785D02*
X0194187Y0041785D01*
X0194187Y0040187D02*
X0198413Y0040187D01*
X0196815Y0038588D02*
X0193191Y0038588D01*
X0193915Y0036990D02*
X0195216Y0036990D01*
X0200221Y0033793D02*
X0208469Y0033793D01*
X0208517Y0033745D02*
X0208877Y0033537D01*
X0208263Y0033283D01*
X0207587Y0032608D01*
X0207260Y0031817D01*
X0198245Y0031817D01*
X0239631Y0073203D01*
X0239789Y0073045D01*
X0242031Y0072117D01*
X0244457Y0072117D01*
X0246699Y0073045D01*
X0248415Y0074761D01*
X0249344Y0077003D01*
X0249344Y0079430D01*
X0248415Y0081672D01*
X0246699Y0083388D01*
X0244457Y0084317D01*
X0242031Y0084317D01*
X0239789Y0083388D01*
X0238073Y0081672D01*
X0237876Y0081198D01*
X0237439Y0081800D01*
X0236827Y0082412D01*
X0236127Y0082921D01*
X0235355Y0083314D01*
X0234532Y0083581D01*
X0233677Y0083717D01*
X0233444Y0083717D01*
X0233444Y0078417D01*
X0233044Y0078417D01*
X0233044Y0083717D01*
X0232811Y0083717D01*
X0231956Y0083581D01*
X0231133Y0083314D01*
X0230361Y0082921D01*
X0229661Y0082412D01*
X0229049Y0081800D01*
X0228612Y0081198D01*
X0228415Y0081672D01*
X0226699Y0083388D01*
X0224457Y0084317D01*
X0222031Y0084317D01*
X0219990Y0083471D01*
X0170861Y0132601D01*
X0172031Y0132117D01*
X0174457Y0132117D01*
X0176699Y0133045D01*
X0178244Y0134590D01*
X0179789Y0133045D01*
X0182031Y0132117D01*
X0184457Y0132117D01*
X0186699Y0133045D01*
X0188244Y0134590D01*
X0189789Y0133045D01*
X0192031Y0132117D01*
X0194457Y0132117D01*
X0196699Y0133045D01*
X0198244Y0134590D01*
X0199789Y0133045D01*
X0202031Y0132117D01*
X0204457Y0132117D01*
X0206699Y0133045D01*
X0208415Y0134761D01*
X0208612Y0135235D01*
X0209049Y0134634D01*
X0209661Y0134021D01*
X0210361Y0133513D01*
X0211133Y0133119D01*
X0211956Y0132852D01*
X0212811Y0132717D01*
X0213044Y0132717D01*
X0213044Y0138016D01*
X0213444Y0138016D01*
X0213444Y0132717D01*
X0213677Y0132717D01*
X0214532Y0132852D01*
X0215355Y0133119D01*
X0216127Y0133513D01*
X0216827Y0134021D01*
X0217439Y0134634D01*
X0217876Y0135235D01*
X0218073Y0134761D01*
X0219789Y0133045D01*
X0222031Y0132117D01*
X0224457Y0132117D01*
X0226699Y0133045D01*
X0228244Y0134590D01*
X0229789Y0133045D01*
X0232031Y0132117D01*
X0234457Y0132117D01*
X0236699Y0133045D01*
X0238244Y0134590D01*
X0239789Y0133045D01*
X0242031Y0132117D01*
X0244457Y0132117D01*
X0246699Y0133045D01*
X0248415Y0134761D01*
X0249344Y0137003D01*
X0249344Y0139430D01*
X0248415Y0141672D01*
X0246710Y0143377D01*
X0252145Y0143377D01*
X0252145Y0013017D01*
X0151451Y0013017D01*
X0151451Y0013438D01*
X0151086Y0014320D01*
X0150411Y0014995D01*
X0149529Y0015361D01*
X0144637Y0015361D01*
X0143755Y0014995D01*
X0143221Y0014462D01*
X0143221Y0016971D01*
X0143755Y0016438D01*
X0144637Y0016072D01*
X0149529Y0016072D01*
X0150411Y0016438D01*
X0151086Y0017113D01*
X0151451Y0017995D01*
X0151451Y0022099D01*
X0151086Y0022982D01*
X0150411Y0023657D01*
X0149529Y0024022D01*
X0144637Y0024022D01*
X0143755Y0023657D01*
X0143380Y0023282D01*
X0143380Y0025117D01*
X0192721Y0025117D01*
X0193787Y0025558D01*
X0194245Y0026017D01*
X0207561Y0026017D01*
X0207587Y0025952D01*
X0208263Y0025276D01*
X0209145Y0024911D01*
X0228210Y0024911D01*
X0229092Y0025276D01*
X0229767Y0025952D01*
X0230132Y0026834D01*
X0230132Y0031725D01*
X0229767Y0032608D01*
X0229092Y0033283D01*
X0228478Y0033537D01*
X0228837Y0033745D01*
X0229173Y0034080D01*
X0229410Y0034490D01*
X0229532Y0034948D01*
X0229532Y0036969D01*
X0218861Y0036969D01*
X0218861Y0037338D01*
X0218493Y0037338D01*
X0218493Y0040922D01*
X0209385Y0040922D01*
X0208927Y0040799D01*
X0208517Y0040562D01*
X0208182Y0040227D01*
X0207945Y0039817D01*
X0207822Y0039359D01*
X0207822Y0037338D01*
X0218493Y0037338D01*
X0218493Y0036969D01*
X0207822Y0036969D01*
X0207822Y0034948D01*
X0207945Y0034490D01*
X0208182Y0034080D01*
X0208517Y0033745D01*
X0207822Y0035391D02*
X0201820Y0035391D01*
X0203419Y0036990D02*
X0218493Y0036990D01*
X0218861Y0036990D02*
X0252145Y0036990D01*
X0252145Y0038588D02*
X0229532Y0038588D01*
X0229532Y0039359D02*
X0229532Y0037338D01*
X0218861Y0037338D01*
X0218861Y0040922D01*
X0227969Y0040922D01*
X0228427Y0040799D01*
X0228837Y0040562D01*
X0229173Y0040227D01*
X0229410Y0039817D01*
X0229532Y0039359D01*
X0229196Y0040187D02*
X0252145Y0040187D01*
X0252145Y0041785D02*
X0247569Y0041785D01*
X0247877Y0042093D02*
X0247202Y0041418D01*
X0246320Y0041053D01*
X0231979Y0041053D01*
X0231097Y0041418D01*
X0230422Y0042093D01*
X0230057Y0042975D01*
X0230057Y0050229D01*
X0230422Y0051111D01*
X0231097Y0051787D01*
X0231979Y0052152D01*
X0246320Y0052152D01*
X0247202Y0051787D01*
X0247877Y0051111D01*
X0248243Y0050229D01*
X0248243Y0042975D01*
X0247877Y0042093D01*
X0248243Y0043384D02*
X0252145Y0043384D01*
X0252145Y0044982D02*
X0248243Y0044982D01*
X0248243Y0046581D02*
X0252145Y0046581D01*
X0252145Y0048179D02*
X0248243Y0048179D01*
X0248243Y0049778D02*
X0252145Y0049778D01*
X0252145Y0051376D02*
X0247612Y0051376D01*
X0252145Y0052975D02*
X0219404Y0052975D01*
X0221002Y0054573D02*
X0252145Y0054573D01*
X0252145Y0056172D02*
X0222601Y0056172D01*
X0224199Y0057770D02*
X0252145Y0057770D01*
X0252145Y0059369D02*
X0225798Y0059369D01*
X0227396Y0060967D02*
X0252145Y0060967D01*
X0252145Y0062566D02*
X0228995Y0062566D01*
X0230593Y0064164D02*
X0252145Y0064164D01*
X0252145Y0065763D02*
X0232192Y0065763D01*
X0233790Y0067361D02*
X0252145Y0067361D01*
X0252145Y0068960D02*
X0235389Y0068960D01*
X0236987Y0070558D02*
X0252145Y0070558D01*
X0252145Y0072157D02*
X0244555Y0072157D01*
X0241933Y0072157D02*
X0238586Y0072157D01*
X0233444Y0078551D02*
X0233044Y0078551D01*
X0233044Y0080150D02*
X0233444Y0080150D01*
X0233444Y0081748D02*
X0233044Y0081748D01*
X0233044Y0083347D02*
X0233444Y0083347D01*
X0235254Y0083347D02*
X0239747Y0083347D01*
X0238149Y0081748D02*
X0237477Y0081748D01*
X0231234Y0083347D02*
X0226741Y0083347D01*
X0228339Y0081748D02*
X0229012Y0081748D01*
X0218517Y0084945D02*
X0252145Y0084945D01*
X0252145Y0083347D02*
X0246741Y0083347D01*
X0248339Y0081748D02*
X0252145Y0081748D01*
X0252145Y0080150D02*
X0249046Y0080150D01*
X0249344Y0078551D02*
X0252145Y0078551D01*
X0252145Y0076953D02*
X0249323Y0076953D01*
X0248661Y0075354D02*
X0252145Y0075354D01*
X0252145Y0073755D02*
X0247410Y0073755D01*
X0252145Y0086544D02*
X0216918Y0086544D01*
X0215320Y0088142D02*
X0252145Y0088142D01*
X0252145Y0089741D02*
X0213721Y0089741D01*
X0212123Y0091339D02*
X0252145Y0091339D01*
X0252145Y0092938D02*
X0210524Y0092938D01*
X0208926Y0094536D02*
X0252145Y0094536D01*
X0252145Y0096135D02*
X0207327Y0096135D01*
X0205729Y0097733D02*
X0252145Y0097733D01*
X0252145Y0099332D02*
X0204130Y0099332D01*
X0202532Y0100930D02*
X0252145Y0100930D01*
X0252145Y0102529D02*
X0200933Y0102529D01*
X0199335Y0104127D02*
X0252145Y0104127D01*
X0252145Y0105726D02*
X0197736Y0105726D01*
X0196138Y0107324D02*
X0252145Y0107324D01*
X0252145Y0108923D02*
X0194539Y0108923D01*
X0192941Y0110521D02*
X0252145Y0110521D01*
X0252145Y0112120D02*
X0191342Y0112120D01*
X0189744Y0113718D02*
X0252145Y0113718D01*
X0252145Y0115317D02*
X0188145Y0115317D01*
X0186547Y0116915D02*
X0252145Y0116915D01*
X0252145Y0118514D02*
X0184948Y0118514D01*
X0183350Y0120112D02*
X0252145Y0120112D01*
X0252145Y0121711D02*
X0181751Y0121711D01*
X0180152Y0123309D02*
X0252145Y0123309D01*
X0252145Y0124908D02*
X0178554Y0124908D01*
X0176955Y0126506D02*
X0252145Y0126506D01*
X0252145Y0128105D02*
X0175357Y0128105D01*
X0173758Y0129703D02*
X0252145Y0129703D01*
X0252145Y0131302D02*
X0172160Y0131302D01*
X0176350Y0132900D02*
X0180138Y0132900D01*
X0178335Y0134499D02*
X0178153Y0134499D01*
X0186350Y0132900D02*
X0190138Y0132900D01*
X0188335Y0134499D02*
X0188153Y0134499D01*
X0196350Y0132900D02*
X0200138Y0132900D01*
X0198335Y0134499D02*
X0198153Y0134499D01*
X0206350Y0132900D02*
X0211807Y0132900D01*
X0213044Y0132900D02*
X0213444Y0132900D01*
X0214681Y0132900D02*
X0220138Y0132900D01*
X0218335Y0134499D02*
X0217305Y0134499D01*
X0213444Y0134499D02*
X0213044Y0134499D01*
X0213044Y0136097D02*
X0213444Y0136097D01*
X0213444Y0137696D02*
X0213044Y0137696D01*
X0209184Y0134499D02*
X0208153Y0134499D01*
X0226350Y0132900D02*
X0230138Y0132900D01*
X0228335Y0134499D02*
X0228153Y0134499D01*
X0236350Y0132900D02*
X0240138Y0132900D01*
X0238335Y0134499D02*
X0238153Y0134499D01*
X0246350Y0132900D02*
X0252145Y0132900D01*
X0252145Y0134499D02*
X0248153Y0134499D01*
X0248969Y0136097D02*
X0252145Y0136097D01*
X0252145Y0137696D02*
X0249344Y0137696D01*
X0249344Y0139294D02*
X0252145Y0139294D01*
X0252145Y0140893D02*
X0248738Y0140893D01*
X0247596Y0142491D02*
X0252145Y0142491D01*
X0124843Y0110617D02*
X0115886Y0101659D01*
X0115444Y0100593D01*
X0115444Y0074539D01*
X0114614Y0073709D01*
X0113944Y0072092D01*
X0113944Y0070817D01*
X0113208Y0070817D01*
X0112031Y0070329D01*
X0111131Y0069429D01*
X0101719Y0060017D01*
X0087446Y0060017D01*
X0087446Y0063426D01*
X0083861Y0063426D01*
X0083861Y0063794D01*
X0087446Y0063794D01*
X0087446Y0064557D01*
X0097836Y0064557D01*
X0098718Y0064922D01*
X0099393Y0065597D01*
X0099758Y0066479D01*
X0099758Y0071371D01*
X0099630Y0071681D01*
X0099758Y0071991D01*
X0099758Y0076883D01*
X0099630Y0077193D01*
X0099758Y0077503D01*
X0099758Y0082395D01*
X0099630Y0082705D01*
X0099758Y0083015D01*
X0099758Y0087907D01*
X0099630Y0088217D01*
X0099758Y0088527D01*
X0099758Y0093418D01*
X0099630Y0093728D01*
X0099758Y0094038D01*
X0099758Y0098930D01*
X0099630Y0099240D01*
X0099758Y0099550D01*
X0099758Y0104442D01*
X0099393Y0105324D01*
X0099158Y0105559D01*
X0099758Y0104127D02*
X0109555Y0104127D01*
X0113158Y0104127D02*
X0113330Y0104127D01*
X0113330Y0102717D02*
X0113677Y0102717D01*
X0114532Y0102852D01*
X0115355Y0103119D01*
X0116127Y0103513D01*
X0116827Y0104021D01*
X0117439Y0104634D01*
X0117948Y0105334D01*
X0118341Y0106105D01*
X0118609Y0106929D01*
X0118744Y0107784D01*
X0118744Y0108131D01*
X0113330Y0108131D01*
X0113330Y0108302D01*
X0118744Y0108302D01*
X0118744Y0108649D01*
X0118609Y0109504D01*
X0118341Y0110328D01*
X0118194Y0110617D01*
X0124843Y0110617D01*
X0124748Y0110521D02*
X0118243Y0110521D01*
X0118701Y0108923D02*
X0123149Y0108923D01*
X0121551Y0107324D02*
X0118671Y0107324D01*
X0118148Y0105726D02*
X0119952Y0105726D01*
X0118354Y0104127D02*
X0116933Y0104127D01*
X0116755Y0102529D02*
X0099758Y0102529D01*
X0099758Y0100930D02*
X0115584Y0100930D01*
X0115444Y0099332D02*
X0099668Y0099332D01*
X0099758Y0097733D02*
X0115444Y0097733D01*
X0115444Y0096135D02*
X0099758Y0096135D01*
X0099758Y0094536D02*
X0115444Y0094536D01*
X0115444Y0092938D02*
X0099758Y0092938D01*
X0099758Y0091339D02*
X0115444Y0091339D01*
X0115444Y0089741D02*
X0099758Y0089741D01*
X0099661Y0088142D02*
X0115444Y0088142D01*
X0115444Y0086544D02*
X0099758Y0086544D01*
X0099758Y0084945D02*
X0115444Y0084945D01*
X0115444Y0083347D02*
X0099758Y0083347D01*
X0099758Y0081748D02*
X0115444Y0081748D01*
X0115444Y0080150D02*
X0099758Y0080150D01*
X0099758Y0078551D02*
X0115444Y0078551D01*
X0115444Y0076953D02*
X0099729Y0076953D01*
X0099758Y0075354D02*
X0115444Y0075354D01*
X0114661Y0073755D02*
X0099758Y0073755D01*
X0099758Y0072157D02*
X0113971Y0072157D01*
X0112585Y0070558D02*
X0099758Y0070558D01*
X0099758Y0068960D02*
X0110662Y0068960D01*
X0109064Y0067361D02*
X0099758Y0067361D01*
X0099462Y0065763D02*
X0107465Y0065763D01*
X0105867Y0064164D02*
X0087446Y0064164D01*
X0087446Y0062566D02*
X0104268Y0062566D01*
X0102669Y0060967D02*
X0087446Y0060967D01*
X0083861Y0064164D02*
X0083493Y0064164D01*
X0083493Y0065763D02*
X0083861Y0065763D01*
X0083861Y0067361D02*
X0083493Y0067361D01*
X0083493Y0068960D02*
X0083861Y0068960D01*
X0085313Y0070558D02*
X0081274Y0070558D01*
X0064943Y0039517D02*
X0068143Y0036317D01*
X0059267Y0036317D01*
X0058201Y0035875D01*
X0057386Y0035059D01*
X0055586Y0033259D01*
X0055144Y0032193D01*
X0055144Y0032141D01*
X0055037Y0031883D01*
X0055037Y0025416D01*
X0055402Y0024534D01*
X0055580Y0024357D01*
X0054027Y0024357D01*
X0053144Y0023991D01*
X0052469Y0023316D01*
X0052398Y0023144D01*
X0052145Y0023397D01*
X0051734Y0023634D01*
X0051276Y0023757D01*
X0048296Y0023757D01*
X0048296Y0019017D01*
X0046696Y0019017D01*
X0046696Y0023757D01*
X0043716Y0023757D01*
X0043258Y0023634D01*
X0043044Y0023511D01*
X0043044Y0037818D01*
X0043223Y0037639D01*
X0044105Y0037273D01*
X0051359Y0037273D01*
X0052241Y0037639D01*
X0052916Y0038314D01*
X0053244Y0039105D01*
X0053572Y0038314D01*
X0054247Y0037639D01*
X0055129Y0037273D01*
X0062383Y0037273D01*
X0063265Y0037639D01*
X0063940Y0038314D01*
X0064305Y0039196D01*
X0064305Y0039517D01*
X0064943Y0039517D01*
X0064054Y0038588D02*
X0065871Y0038588D01*
X0067470Y0036990D02*
X0043044Y0036990D01*
X0043044Y0035391D02*
X0057718Y0035391D01*
X0056119Y0033793D02*
X0043044Y0033793D01*
X0043044Y0032194D02*
X0055144Y0032194D01*
X0055037Y0030596D02*
X0043044Y0030596D01*
X0043044Y0028997D02*
X0055037Y0028997D01*
X0055037Y0027399D02*
X0043044Y0027399D01*
X0043044Y0025800D02*
X0055037Y0025800D01*
X0053652Y0024202D02*
X0043044Y0024202D01*
X0046696Y0022603D02*
X0048296Y0022603D01*
X0048296Y0021005D02*
X0046696Y0021005D01*
X0046696Y0019406D02*
X0048296Y0019406D01*
X0048244Y0018965D02*
X0048244Y0033217D01*
X0053030Y0038588D02*
X0053458Y0038588D01*
X0068892Y0028650D02*
X0070851Y0028650D01*
X0070851Y0030517D01*
X0119810Y0030517D01*
X0120014Y0030024D01*
X0120111Y0029928D01*
X0120030Y0029928D01*
X0119148Y0029562D01*
X0118473Y0028887D01*
X0118108Y0028005D01*
X0118108Y0023282D01*
X0117734Y0023657D01*
X0116851Y0024022D01*
X0111960Y0024022D01*
X0111078Y0023657D01*
X0110402Y0022982D01*
X0110037Y0022099D01*
X0110037Y0017995D01*
X0110402Y0017113D01*
X0111078Y0016438D01*
X0111960Y0016072D01*
X0116851Y0016072D01*
X0117734Y0016438D01*
X0118267Y0016971D01*
X0118267Y0014462D01*
X0117734Y0014995D01*
X0116851Y0015361D01*
X0111960Y0015361D01*
X0111078Y0014995D01*
X0110402Y0014320D01*
X0110037Y0013438D01*
X0110037Y0013017D01*
X0083607Y0013017D01*
X0083641Y0013036D01*
X0083976Y0013371D01*
X0084213Y0013782D01*
X0084335Y0014239D01*
X0084335Y0017417D01*
X0079792Y0017417D01*
X0079792Y0019016D01*
X0084335Y0019016D01*
X0084335Y0022194D01*
X0084213Y0022651D01*
X0083976Y0023062D01*
X0083641Y0023397D01*
X0083230Y0023634D01*
X0082772Y0023757D01*
X0079792Y0023757D01*
X0079792Y0019017D01*
X0078192Y0019017D01*
X0078192Y0023757D01*
X0075212Y0023757D01*
X0074754Y0023634D01*
X0074344Y0023397D01*
X0074090Y0023144D01*
X0074019Y0023316D01*
X0073344Y0023991D01*
X0072462Y0024357D01*
X0069989Y0024357D01*
X0070156Y0024453D01*
X0070492Y0024788D01*
X0070729Y0025199D01*
X0070851Y0025657D01*
X0070851Y0028650D01*
X0068892Y0028650D01*
X0068892Y0028650D01*
X0070851Y0028997D02*
X0118583Y0028997D01*
X0118108Y0027399D02*
X0070851Y0027399D01*
X0070851Y0025800D02*
X0118108Y0025800D01*
X0118108Y0024202D02*
X0072836Y0024202D01*
X0078192Y0022603D02*
X0079792Y0022603D01*
X0079792Y0021005D02*
X0078192Y0021005D01*
X0078192Y0019406D02*
X0079792Y0019406D01*
X0079792Y0017808D02*
X0110115Y0017808D01*
X0110037Y0019406D02*
X0084335Y0019406D01*
X0084335Y0021005D02*
X0110037Y0021005D01*
X0110246Y0022603D02*
X0084226Y0022603D01*
X0084335Y0016209D02*
X0111630Y0016209D01*
X0110693Y0014611D02*
X0084335Y0014611D01*
X0117181Y0016209D02*
X0118267Y0016209D01*
X0118267Y0014611D02*
X0118118Y0014611D01*
X0143221Y0014611D02*
X0143370Y0014611D01*
X0143221Y0016209D02*
X0144307Y0016209D01*
X0149858Y0016209D02*
X0230057Y0016209D01*
X0230057Y0016204D02*
X0230422Y0015322D01*
X0231097Y0014646D01*
X0231979Y0014281D01*
X0246320Y0014281D01*
X0247202Y0014646D01*
X0247877Y0015322D01*
X0248243Y0016204D01*
X0248243Y0023458D01*
X0247877Y0024340D01*
X0247202Y0025015D01*
X0246320Y0025380D01*
X0231979Y0025380D01*
X0231097Y0025015D01*
X0230422Y0024340D01*
X0230057Y0023458D01*
X0230057Y0016204D01*
X0230057Y0017808D02*
X0151374Y0017808D01*
X0151451Y0019406D02*
X0230057Y0019406D01*
X0230057Y0021005D02*
X0151451Y0021005D01*
X0151243Y0022603D02*
X0230057Y0022603D01*
X0230365Y0024202D02*
X0143380Y0024202D01*
X0150795Y0014611D02*
X0231184Y0014611D01*
X0229616Y0025800D02*
X0252145Y0025800D01*
X0252145Y0024202D02*
X0247934Y0024202D01*
X0248243Y0022603D02*
X0252145Y0022603D01*
X0252145Y0021005D02*
X0248243Y0021005D01*
X0248243Y0019406D02*
X0252145Y0019406D01*
X0252145Y0017808D02*
X0248243Y0017808D01*
X0248243Y0016209D02*
X0252145Y0016209D01*
X0252145Y0014611D02*
X0247115Y0014611D01*
X0252145Y0027399D02*
X0230132Y0027399D01*
X0230132Y0028997D02*
X0252145Y0028997D01*
X0252145Y0030596D02*
X0230132Y0030596D01*
X0229938Y0032194D02*
X0252145Y0032194D01*
X0252145Y0033793D02*
X0228886Y0033793D01*
X0229532Y0035391D02*
X0252145Y0035391D01*
X0230730Y0041785D02*
X0208214Y0041785D01*
X0208158Y0040187D02*
X0206616Y0040187D01*
X0207822Y0038588D02*
X0205017Y0038588D01*
X0209813Y0043384D02*
X0230057Y0043384D01*
X0230057Y0044982D02*
X0211411Y0044982D01*
X0213010Y0046581D02*
X0230057Y0046581D01*
X0230057Y0048179D02*
X0214608Y0048179D01*
X0216207Y0049778D02*
X0230057Y0049778D01*
X0230687Y0051376D02*
X0217805Y0051376D01*
X0218493Y0040187D02*
X0218861Y0040187D01*
X0218861Y0038588D02*
X0218493Y0038588D01*
X0207416Y0032194D02*
X0198623Y0032194D01*
X0194029Y0025800D02*
X0207739Y0025800D01*
X0113330Y0102717D02*
X0113330Y0108131D01*
X0113158Y0108131D01*
X0113158Y0108302D01*
X0107744Y0108302D01*
X0107744Y0108649D01*
X0107880Y0109504D01*
X0108147Y0110328D01*
X0108294Y0110617D01*
X0108246Y0110521D02*
X0098833Y0110521D01*
X0099158Y0108923D02*
X0107787Y0108923D01*
X0113158Y0107324D02*
X0113330Y0107324D01*
X0113330Y0105726D02*
X0113158Y0105726D01*
X0080928Y0105726D02*
X0080915Y0105726D01*
X0075416Y0105726D02*
X0075403Y0105726D01*
X0069904Y0105726D02*
X0069891Y0105726D01*
X0064392Y0105726D02*
X0058868Y0105726D01*
X0061446Y0107324D02*
X0061814Y0107324D01*
X0061814Y0108923D02*
X0061446Y0108923D01*
X0061446Y0110521D02*
X0061814Y0110521D01*
X0061814Y0112120D02*
X0061446Y0112120D01*
X0050791Y0112120D02*
X0050422Y0112120D01*
X0050422Y0112639D02*
X0046838Y0112639D01*
X0045279Y0112639D01*
X0045279Y0113007D01*
X0050422Y0113007D01*
X0050422Y0112639D01*
X0050422Y0113007D02*
X0050422Y0119446D01*
X0048401Y0119446D01*
X0047943Y0119323D01*
X0047850Y0119270D01*
X0047758Y0119323D01*
X0047300Y0119446D01*
X0045279Y0119446D01*
X0045279Y0113007D01*
X0044910Y0113007D01*
X0044910Y0119446D01*
X0043044Y0119446D01*
X0043044Y0143377D01*
X0109778Y0143377D01*
X0108073Y0141672D01*
X0107677Y0140717D01*
X0077267Y0140717D01*
X0076201Y0140275D01*
X0075386Y0139459D01*
X0055972Y0120046D01*
X0053672Y0120046D01*
X0052790Y0119680D01*
X0052555Y0119446D01*
X0050791Y0119446D01*
X0050791Y0113007D01*
X0050422Y0113007D01*
X0050422Y0113718D02*
X0050791Y0113718D01*
X0050791Y0115317D02*
X0050422Y0115317D01*
X0050422Y0116915D02*
X0050791Y0116915D01*
X0050791Y0118514D02*
X0050422Y0118514D01*
X0045279Y0118514D02*
X0044910Y0118514D01*
X0044910Y0116915D02*
X0045279Y0116915D01*
X0045279Y0115317D02*
X0044910Y0115317D01*
X0044910Y0113718D02*
X0045279Y0113718D01*
X0045279Y0112120D02*
X0044910Y0112120D01*
X0044910Y0110521D02*
X0045279Y0110521D01*
X0045279Y0108923D02*
X0044910Y0108923D01*
X0044910Y0107324D02*
X0045279Y0107324D01*
X0043044Y0105726D02*
X0053369Y0105726D01*
X0050791Y0107324D02*
X0050422Y0107324D01*
X0050422Y0108923D02*
X0050791Y0108923D01*
X0050791Y0110521D02*
X0050422Y0110521D01*
X0056039Y0120112D02*
X0043044Y0120112D01*
X0043044Y0121711D02*
X0057637Y0121711D01*
X0059236Y0123309D02*
X0043044Y0123309D01*
X0043044Y0124908D02*
X0060834Y0124908D01*
X0062433Y0126506D02*
X0043044Y0126506D01*
X0043044Y0128105D02*
X0064031Y0128105D01*
X0065630Y0129703D02*
X0043044Y0129703D01*
X0043044Y0131302D02*
X0067228Y0131302D01*
X0068827Y0132900D02*
X0043044Y0132900D01*
X0043044Y0134499D02*
X0070425Y0134499D01*
X0072024Y0136097D02*
X0043044Y0136097D01*
X0043044Y0137696D02*
X0073622Y0137696D01*
X0075221Y0139294D02*
X0043044Y0139294D01*
X0043044Y0140893D02*
X0107750Y0140893D01*
X0108892Y0142491D02*
X0043044Y0142491D01*
X0048244Y0018965D02*
X0047496Y0018217D01*
D27*
X0048244Y0033217D03*
X0098244Y0023217D03*
X0108244Y0078217D03*
X0208244Y0058217D03*
D28*
X0238244Y0058217D03*
X0163244Y0018217D03*
X0093244Y0018217D03*
X0233244Y0108217D03*
X0053244Y0133217D03*
M02*
