%
M48
M72
T01C0.02362
T02C0.02400
T03C0.03543
T04C0.04000
T05C0.06299
%
T01
X48244Y33217
X98244Y23217
X108244Y78217
X208244Y58217
T02
X132744Y64017
X118344Y62217
X118344Y71217
X85944Y49617
X123744Y32517
X129144Y27117
X130944Y112617
X111144Y123417
T03
X113244Y138217
X113244Y108217
X124839Y15717
X136650Y15717
T04
X133244Y78217
X143244Y78217
X153244Y78217
X163244Y78217
X173244Y78217
X183244Y78217
X193244Y78217
X203244Y78217
X213244Y78217
X223244Y78217
X233244Y78217
X243244Y78217
X243244Y138217
X233244Y138217
X223244Y138217
X213244Y138217
X203244Y138217
X193244Y138217
X183244Y138217
X173244Y138217
X163244Y138217
X153244Y138217
X143244Y138217
X133244Y138217
T05
X53244Y133217
X233244Y108217
X238244Y58217
X163244Y18217
X93244Y18217
M30
