G75*
%MOIN*%
%OFA0B0*%
%FSLAX25Y25*%
%IPPOS*%
%LPD*%
%AMOC8*
5,1,8,0,0,1.08239X$1,22.5*
%
%ADD10C,0.08200*%
%ADD11C,0.04343*%
%ADD12C,0.04800*%
%ADD13C,0.04762*%
%ADD14C,0.10249*%
D10*
X0133244Y0078217D03*
X0143244Y0078217D03*
X0153244Y0078217D03*
X0163244Y0078217D03*
X0173244Y0078217D03*
X0183244Y0078217D03*
X0193244Y0078217D03*
X0203244Y0078217D03*
X0213244Y0078217D03*
X0223244Y0078217D03*
X0233244Y0078217D03*
X0243244Y0078217D03*
X0243244Y0138217D03*
X0233244Y0138217D03*
X0223244Y0138217D03*
X0213244Y0138217D03*
X0203244Y0138217D03*
X0193244Y0138217D03*
X0183244Y0138217D03*
X0173244Y0138217D03*
X0163244Y0138217D03*
X0153244Y0138217D03*
X0143244Y0138217D03*
X0133244Y0138217D03*
X0113244Y0138217D03*
X0113244Y0108217D03*
D11*
X0124839Y0015717D03*
X0136650Y0015717D03*
D12*
X0129144Y0027117D03*
X0123744Y0032517D03*
X0085944Y0049617D03*
X0118344Y0062217D03*
X0118344Y0071217D03*
X0132744Y0064017D03*
X0130944Y0112617D03*
X0111144Y0123417D03*
D13*
X0048244Y0033217D03*
X0098244Y0023217D03*
X0108244Y0078217D03*
X0208244Y0058217D03*
D14*
X0238244Y0058217D03*
X0163244Y0018217D03*
X0093244Y0018217D03*
X0233244Y0108217D03*
X0053244Y0133217D03*
M02*
